<?xml version="1.0" encoding="UTF-8" standalone="no"?>
<svg
   xmlns:dc="http://purl.org/dc/elements/1.1/"
   xmlns:cc="http://creativecommons.org/ns#"
   xmlns:rdf="http://www.w3.org/1999/02/22-rdf-syntax-ns#"
   xmlns:svg="http://www.w3.org/2000/svg"
   xmlns="http://www.w3.org/2000/svg"
   xmlns:sodipodi="http://sodipodi.sourceforge.net/DTD/sodipodi-0.dtd"
   xmlns:inkscape="http://www.inkscape.org/namespaces/inkscape"
   version="1.1"
   id="Layer_1"
   x="0px"
   y="0px"
   viewBox="0 0 483.51304 121.1281"
   xml:space="preserve"
   sodipodi:docname="Logo.svg"
   width="483.51306"
   height="121.1281"
   inkscape:version="1.0.1 (3bc2e813f5, 2020-09-07)"><metadata
   id="metadata921"><rdf:RDF><cc:Work
       rdf:about=""><dc:format>image/svg+xml</dc:format><dc:type
         rdf:resource="http://purl.org/dc/dcmitype/StillImage" /><dc:title></dc:title></cc:Work></rdf:RDF></metadata><defs
   id="defs919" /><sodipodi:namedview
   pagecolor="#ffffff"
   bordercolor="#666666"
   borderopacity="1"
   objecttolerance="10"
   gridtolerance="10"
   guidetolerance="10"
   inkscape:pageopacity="0"
   inkscape:pageshadow="2"
   inkscape:window-width="1920"
   inkscape:window-height="1001"
   id="namedview917"
   showgrid="false"
   fit-margin-top="0"
   fit-margin-left="0"
   fit-margin-right="0"
   fit-margin-bottom="0"
   inkscape:zoom="0.98587701"
   inkscape:cx="454.4442"
   inkscape:cy="58.381988"
   inkscape:window-x="-9"
   inkscape:window-y="-9"
   inkscape:window-maximized="1"
   inkscape:current-layer="Layer_1" />
<style
   type="text/css"
   id="style878">
	.st0{fill:#FFFF00;}
</style>
<g
   id="g914"
   transform="matrix(0.92797134,0,0,0.92797134,-34.441379,-298.79749)">
	<g
   id="g882">
		<path
   class="st0"
   d="m 495.04,448.27 h -394.8 c -33.7,0 -61.02,-27.32 -61.02,-61.02 v 0 c 0,-33.7 27.32,-61.02 61.02,-61.02 h 394.8 c 33.7,0 61.02,27.32 61.02,61.02 v 0 c 0,33.7 -27.32,61.02 -61.02,61.02 z"
   id="path880" />
	</g>
	<g
   id="g900">
		<path
   d="M 92.44,410.88 H 78.11 l 8.24,-46.32 h 14.26 z"
   id="path884" />
		<path
   d="m 153.71,398.98 -11.42,11.91 h -40.92 l 8.24,-46.32 h 14.26 l -6.09,34.41 z"
   id="path886" />
		<path
   d="m 208.68,398.98 -11.42,11.91 h -40.92 l 8.24,-46.32 h 14.26 l -6.09,34.41 z"
   id="path888" />
		<path
   d="m 275.01,390.67 c -2.49,13.99 -13.34,20.98 -32.54,20.98 -9.92,0 -17.18,-1.38 -21.77,-4.15 -4.59,-2.77 -6.89,-6.92 -6.89,-12.46 0,-1.38 0.14,-2.84 0.42,-4.36 l 4.64,-26.1 h 14.33 l -4.71,26.1 c -0.14,0.97 -0.21,1.82 -0.21,2.56 0,1.2 0.25,2.22 0.76,3.05 0.51,0.83 1.38,1.5 2.63,2.01 1.25,0.51 2.91,0.88 4.98,1.11 2.08,0.23 4.71,0.35 7.89,0.35 2.77,0 5.11,-0.16 7.03,-0.48 1.92,-0.32 3.5,-0.85 4.74,-1.59 1.25,-0.74 2.2,-1.68 2.87,-2.84 0.67,-1.16 1.14,-2.54 1.42,-4.15 l 4.64,-26.1 h 14.4 z"
   id="path890" />
		<path
   d="m 314.12,381.81 c 1.2,3.19 2.22,5.9 3.05,8.14 0.83,2.24 1.5,4.14 2.01,5.71 0.51,-0.83 1.06,-1.67 1.66,-2.53 0.6,-0.85 1.28,-1.82 2.04,-2.91 0.76,-1.08 1.64,-2.3 2.63,-3.63 0.99,-1.34 2.16,-2.91 3.5,-4.71 l 9.76,-13.15 c 1.06,-1.48 2.3,-2.66 3.7,-3.57 1.41,-0.9 3.08,-1.35 5.02,-1.35 1.8,0 3.33,0.52 4.6,1.56 1.27,1.04 2.02,2.64 2.25,4.81 l 4.57,40.71 h -14.26 l -1.59,-16.13 c -0.23,-2.63 -0.42,-4.94 -0.55,-6.92 -0.14,-1.98 -0.23,-3.92 -0.28,-5.82 -0.51,0.83 -1.05,1.67 -1.63,2.53 -0.58,0.85 -1.22,1.8 -1.94,2.84 -0.72,1.04 -1.5,2.16 -2.35,3.36 -0.85,1.2 -1.81,2.56 -2.87,4.09 l -8.24,11.63 c -0.83,1.15 -1.61,2.07 -2.32,2.73 -0.72,0.67 -1.44,1.19 -2.18,1.56 -0.74,0.37 -1.48,0.61 -2.22,0.73 -0.74,0.12 -1.55,0.17 -2.42,0.17 -0.88,0 -1.67,-0.06 -2.39,-0.17 -0.72,-0.12 -1.37,-0.36 -1.97,-0.73 -0.6,-0.37 -1.14,-0.89 -1.63,-1.56 -0.48,-0.67 -0.94,-1.58 -1.35,-2.73 l -4.15,-11.7 c -0.55,-1.57 -1.05,-2.98 -1.49,-4.22 -0.44,-1.25 -0.82,-2.36 -1.14,-3.36 -0.32,-0.99 -0.61,-1.9 -0.87,-2.74 -0.25,-0.83 -0.5,-1.64 -0.73,-2.42 -0.69,1.71 -1.5,3.63 -2.42,5.78 -0.92,2.15 -1.92,4.46 -2.98,6.96 l -7.2,16.13 h -14.06 l 19.11,-40.71 c 1.06,-2.17 2.42,-3.77 4.09,-4.81 1.66,-1.04 3.39,-1.56 5.19,-1.56 1.85,0 3.32,0.44 4.43,1.32 1.11,0.88 1.96,2.08 2.56,3.6 z"
   id="path892" />
		<path
   d="m 378.72,410.88 h -14.33 l 8.24,-46.32 h 14.26 z"
   id="path894" />
		<path
   d="m 434.45,411.65 c -0.97,0 -1.86,-0.15 -2.66,-0.45 -0.81,-0.3 -1.7,-0.98 -2.67,-2.04 l -23.88,-25.48 -4.78,27.21 h -13.01 l 6.72,-38.43 c 0.28,-1.52 0.72,-2.84 1.32,-3.95 0.6,-1.11 1.33,-2.01 2.18,-2.7 0.85,-0.69 1.79,-1.2 2.8,-1.52 1.01,-0.32 2.05,-0.48 3.12,-0.48 0.88,0 1.75,0.15 2.63,0.45 0.88,0.3 1.78,0.98 2.7,2.04 l 23.89,25.48 4.85,-27.21 h 13.02 l -6.85,38.36 c -0.28,1.52 -0.73,2.84 -1.35,3.95 -0.62,1.11 -1.35,2.02 -2.18,2.73 -0.83,0.72 -1.76,1.24 -2.77,1.56 -1.05,0.31 -2.06,0.48 -3.08,0.48 z"
   id="path896" />
		<path
   d="m 468.58,410.88 10.8,-11.91 h 11.56 c 1.43,0 2.88,0 4.36,0 1.48,0 2.77,0.05 3.88,0.14 -0.51,-0.83 -1.09,-1.88 -1.73,-3.15 -0.65,-1.27 -1.25,-2.46 -1.8,-3.57 l -6.16,-12.25 -27.14,30.74 H 445.39 L 482.5,369 c 1.2,-1.34 2.63,-2.54 4.29,-3.6 1.66,-1.06 3.62,-1.59 5.89,-1.59 2.17,0 3.89,0.5 5.16,1.49 1.27,0.99 2.3,2.23 3.08,3.7 l 21.53,41.89 h -53.87 z"
   id="path898" />
	</g>
	<g
   id="g904">
		<path
   d="m 347.2,330.47 -136.12,-0.61 -68.06,-0.31 -34.03,-0.15 -8.51,-0.04 c -2.71,0.02 -5.4,0.08 -8.07,0.45 -5.35,0.64 -10.61,2.08 -15.58,4.2 -9.95,4.23 -18.71,11.33 -24.92,20.26 -6.25,8.91 -9.92,19.62 -10.47,30.56 -0.6,10.94 1.96,22.05 7.32,31.67 5.33,9.64 13.43,17.76 23.11,23.15 4.85,2.67 10.06,4.71 15.48,5.95 5.44,1.32 10.94,1.61 16.64,1.59 l 34.03,0.36 68.06,0.72 -68.06,0.71 -34.03,0.36 c -5.63,0.14 -11.54,-0.04 -17.18,-1.29 -5.67,-1.17 -11.16,-3.19 -16.31,-5.88 -10.27,-5.43 -18.98,-13.8 -24.85,-23.9 -5.89,-10.08 -8.9,-21.88 -8.5,-33.61 0.34,-11.74 4.04,-23.4 10.63,-33.21 6.54,-9.84 15.92,-17.79 26.75,-22.67 5.41,-2.45 11.17,-4.15 17.07,-4.99 2.94,-0.47 5.94,-0.61 8.89,-0.69 l 8.51,-0.04 34.03,-0.15 68.06,-0.31 144.6,-0.61 z"
   id="path902" />
	</g>
	<g
   id="g908">
		<path
   d="m 251.41,444.04 136.35,0.62 68.17,0.31 34.09,0.16 c 2.85,0.01 5.7,0.05 8.35,-0.04 2.69,-0.14 5.38,-0.44 8.04,-0.93 5.3,-1.01 10.49,-2.73 15.32,-5.18 9.69,-4.86 18,-12.51 23.67,-21.82 5.72,-9.29 8.69,-20.26 8.53,-31.23 -0.08,-10.98 -3.38,-21.93 -9.53,-31.09 -6.1,-9.19 -14.93,-16.54 -25.03,-21.17 -5.06,-2.3 -10.41,-4 -15.9,-5.02 -5.51,-1.05 -11.06,-1.33 -16.76,-1.32 l -34.09,-0.36 -68.17,-0.72 68.17,-0.72 34.09,-0.36 c 5.66,-0.13 11.51,0.05 17.19,1.01 5.7,0.95 11.3,2.59 16.62,4.89 10.64,4.62 20.11,12.15 26.78,21.78 6.72,9.59 10.5,21.23 10.82,32.98 0.41,11.74 -2.52,23.64 -8.51,33.85 -5.94,10.23 -14.8,18.76 -25.31,24.31 -5.24,2.8 -10.91,4.81 -16.74,6.06 -2.92,0.6 -5.88,1 -8.86,1.21 -1.47,0.08 -3.02,0.14 -4.43,0.15 l -4.26,0.02 -34.09,0.16 -68.17,0.31 -144.82,0.62 z"
   id="path906" />
	</g>
	<g
   id="g912">
		<path
   d="M 242.94,452.51"
   id="path910" />
	</g>
</g>
</svg>
