<?xml version="1.0" encoding="UTF-8" standalone="no"?>
<svg
   xmlns:dc="http://purl.org/dc/elements/1.1/"
   xmlns:cc="http://creativecommons.org/ns#"
   xmlns:rdf="http://www.w3.org/1999/02/22-rdf-syntax-ns#"
   xmlns:svg="http://www.w3.org/2000/svg"
   xmlns="http://www.w3.org/2000/svg"
   xmlns:sodipodi="http://sodipodi.sourceforge.net/DTD/sodipodi-0.dtd"
   xmlns:inkscape="http://www.inkscape.org/namespaces/inkscape"
   width="124.40716mm"
   height="122.43282mm"
   viewBox="0 0 124.40716 122.43282"
   version="1.1"
   id="svg8"
   inkscape:version="1.0.1 (3bc2e813f5, 2020-09-07)">
  <defs
     id="defs2" />
  <sodipodi:namedview
     id="base"
     pagecolor="#ffffff"
     bordercolor="#666666"
     borderopacity="1.0"
     inkscape:pageopacity="0.0"
     inkscape:pageshadow="2"
     inkscape:zoom="0.35"
     inkscape:cx="255.10014"
     inkscape:cy="428.51196"
     inkscape:document-units="mm"
     inkscape:current-layer="layer1"
     inkscape:document-rotation="0"
     showgrid="false"
     fit-margin-top="0"
     fit-margin-left="0"
     fit-margin-right="0"
     fit-margin-bottom="0"
     inkscape:window-width="1920"
     inkscape:window-height="1001"
     inkscape:window-x="2391"
     inkscape:window-y="-9"
     inkscape:window-maximized="1" />
  <metadata
     id="metadata5">
    <rdf:RDF>
      <cc:Work
         rdf:about="">
        <dc:format>image/svg+xml</dc:format>
        <dc:type
           rdf:resource="http://purl.org/dc/dcmitype/StillImage" />
        <dc:title></dc:title>
      </cc:Work>
    </rdf:RDF>
  </metadata>
  <g
     inkscape:label="Ebene 1"
     inkscape:groupmode="layer"
     id="layer1"
     transform="translate(-38.338089,-34.789543)">
    <g
       inkscape:label="Ebene 1"
       id="layer1-4"
       transform="translate(-13.607176,6.8035686)"
       style="fill:#ffff00">
      <path
         class="st0"
         d="m 79.356098,110.27139 c -0.714375,-0.42333 -1.084791,0.15875 -1.508125,0.52917 -0.291041,0.26458 -0.555625,0.39687 -0.978958,0.26458 0.211667,-0.55563 0.529167,-0.97896 1.031875,-1.29646 0.396875,-0.23812 0.767292,-0.52917 1.11125,-0.82021 0.529167,-0.50271 0.740833,-1.05833 0.529167,-1.82562 -0.185209,-0.68792 -0.47625,-1.16417 -1.137709,-1.42875 -0.07937,-0.0265 -0.15875,-0.0794 -0.238125,-0.0794 -0.978958,0 -1.931458,-0.0265 -2.883958,0.3175 -1.375833,0.47625 -2.778125,0.87313 -4.180416,1.29646 -0.9525,0.29104 -1.905,0.635 -2.883959,0.92604 -0.740833,0.21167 -1.481666,0.39688 -2.2225,0.58209 -0.291041,0.0794 -0.555625,0.15875 -0.846666,0.21166 -0.132292,0.0265 -0.264584,0 -0.449792,0 0.529167,-0.84666 1.455208,-0.74083 2.2225,-1.13771 -0.291042,-0.15875 -0.529167,-0.3175 -0.79375,-0.44979 -0.608542,-0.26458 -1.243542,-0.47625 -1.852083,-0.76729 -0.449792,-0.21167 -0.661459,-0.58208 -0.608542,-1.13771 0.3175,0.26459 0.555625,0.18521 0.79375,-0.0794 0.132292,-0.13229 0.343958,-0.18521 0.555625,-0.23813 0.211667,-0.0529 0.423333,-0.10583 0.608542,-0.15875 -0.105834,-0.37041 -0.211667,-0.71437 -0.291042,-1.03187 0.02646,-0.0265 0.07938,-0.0794 0.105833,-0.10584 0.47625,0.1323 0.926042,0.26459 1.481667,0.4498 -0.343958,-0.74084 -0.846667,-1.0848 -1.561042,-1.0848 -0.582083,0 -1.164166,-0.0794 -1.772708,-0.10583 -0.15875,0 -0.370417,0.10583 -0.502708,0.18521 -0.661459,0.44979 -1.296459,0.97896 -1.984375,1.40229 -0.635,0.39688 -1.296459,0.74083 -1.957917,1.03188 -1.217083,0.52916 -2.434167,1.00541 -3.677708,1.4552 -0.714375,0.26459 -1.481667,0.47625 -2.2225,0.68792 -0.396875,0.13229 -0.820209,0.21167 -1.296459,0.21167 0.370417,-0.23813 0.687917,-0.55563 1.084792,-0.71438 1.11125,-0.47625 2.248958,-0.92604 3.360208,-1.37583 0.449792,-0.18521 0.926042,-0.37042 1.375834,-0.58208 0.105833,-0.0529 0.211666,-0.1323 0.264583,-0.21167 0.396875,-0.79375 1.005417,-1.42875 1.640417,-2.03729 0.47625,-0.44979 1.005416,-0.87313 1.481666,-1.37584 0.343959,-0.34395 0.608542,-0.74083 0.873125,-1.16416 0.264584,-0.44979 0.07938,-0.767294 -0.47625,-0.793752 -0.291041,0 -0.582083,0.07937 -0.899583,0.07937 -0.264583,0.02646 -0.502708,0 -0.767292,-0.07937 0.423334,-0.343959 0.873125,-0.661459 1.27,-1.005417 0.608542,-0.529167 1.190625,-1.084792 1.772709,-1.666875 0.502708,-0.502708 0.978958,-1.084792 1.481666,-1.5875 0.687917,-0.714375 1.42875,-1.375833 2.354792,-1.799167 0.05292,-0.02646 0.105833,-0.238125 0.07937,-0.291041 -0.396875,-0.687917 -0.635,-1.402292 -0.555625,-2.2225 0,-0.07937 0,-0.132292 -0.02646,-0.211667 -0.185209,-0.661458 -0.05292,-0.873125 0.635,-0.899583 0.185208,0 0.396875,0 0.635,-0.07938 -0.07937,-0.07937 -0.15875,-0.15875 -0.238125,-0.211667 -0.820209,-0.449791 -1.666875,-0.79375 -2.619375,-0.899583 -0.899584,-0.105833 -1.772709,-0.211667 -2.645834,-0.370417 -0.899583,-0.132291 -1.799166,-0.343958 -2.69875,-0.47625 -0.846666,-0.132291 -1.640416,-0.370416 -2.354791,-0.873125 -0.529167,-0.370416 -0.978959,-0.820208 -1.243542,-1.42875 -0.05292,-0.105833 -0.07938,-0.185208 -0.105833,-0.238125 0.105833,-0.3175 0.185208,-0.582083 0.264583,-0.873125 0.714375,-0.105833 1.27,-0.582083 1.852083,-1.058333 0.396875,-0.3175 1.190625,-0.343958 1.534584,0.05292 -0.264584,-0.02646 -0.423334,-0.05292 -0.608542,-0.02646 -0.132292,0 -0.264583,0.07937 -0.370417,0.105834 0.05292,0.105833 0.105834,0.238125 0.185209,0.264583 1.243541,0.529167 2.460625,1.11125 3.730625,1.561042 1.058333,0.370416 2.169583,0.555625 3.254375,0.79375 0.582083,0.132291 1.164166,0.185208 1.772708,0.264583 0.740833,0.07937 1.481667,0.264583 2.2225,0.211667 1.058333,-0.07937 2.143125,-0.07937 3.201458,-0.291042 1.164167,-0.238125 2.248958,-0.608542 3.280833,-1.190625 0.238125,-0.132292 0.396875,-0.343958 0.608542,-0.502708 -0.211667,-0.211667 -0.370417,-0.502709 -0.608542,-0.635 -1.11125,-0.608542 -2.275416,-1.164167 -3.413124,-1.772709 -0.502709,-0.264583 -0.9525,-0.608541 -1.42875,-0.899583 0.02646,-0.05292 0.05292,-0.105833 0.07937,-0.15875 0.370416,0.15875 0.767291,0.343958 1.137708,0.502708 1.084791,0.449792 2.143125,0.899584 3.227916,1.375834 0.211667,0.07937 0.370417,0.238125 0.582084,0.291041 0.105833,0.02646 0.343958,-0.05292 0.370416,-0.132291 0.07937,-0.291042 0.15875,-0.608542 0.15875,-0.899584 -0.02646,-0.873125 -0.07937,-1.719791 -0.132291,-2.592916 -0.02646,-0.396875 -0.05292,-0.820209 -0.132292,-1.217084 -0.02646,-0.211666 -0.132292,-0.423333 -0.291042,-0.555625 -0.3175,-0.343958 -0.635,-0.687916 -1.005416,-1.005416 -0.396875,-0.343959 -0.79375,-0.661459 -1.217084,-0.978959 -0.767291,-0.582083 -1.534583,-1.164166 -2.301874,-1.719791 -0.608542,-0.449792 -1.243542,-0.873125 -1.852084,-1.322917 -0.9525,-0.687917 -1.931458,-1.349375 -2.831041,-2.116667 -0.846667,-0.714375 -1.666875,-1.455208 -2.38125,-2.275416 -0.926042,-1.031875 -1.693334,-2.2225 -2.2225,-3.545417 0.502708,-0.185208 0.978958,0.02646 1.455208,0.132292 1.084792,0.291042 1.984375,0.899583 2.831042,1.5875 0.740833,0.608541 1.455208,1.27 2.248958,1.825625 0.846667,0.608541 1.772708,1.137708 2.672292,1.666875 0.3175,0.185208 0.714375,0.238125 0.978958,0.343958 0.15875,0.635 0.291042,1.243542 0.502708,1.825625 0.264583,0.687917 0.873125,1.164167 1.481667,1.508125 1.243541,0.714375 2.54,1.375833 3.836458,2.037292 1.164167,0.582083 2.434167,0.873125 3.757083,0.714375 0.687917,-0.07938 1.27,-0.449792 1.74625,-1.031875 0.582084,-0.661459 0.661459,-1.402292 0.687917,-2.196042 0.05292,-0.9525 0.15875,-1.905 0.105833,-2.831042 -0.05292,-0.899583 -0.264583,-1.825625 -0.449791,-2.69875 -0.132292,-0.661458 -0.3175,-1.322916 -0.529167,-1.984374 -0.238125,-0.714375 -0.47625,-1.42875 -0.79375,-2.116667 -0.820208,-1.825625 -1.693333,-3.624792 -2.54,-5.423958 -0.529167,-1.11125 -1.058333,-2.248959 -1.508125,-3.386667 -0.423333,-1.058333 -0.767292,-2.169583 -1.137708,-3.280833 -0.396875,-1.217084 -0.79375,-2.434167 -1.190625,-3.624792 -0.396875,-1.243542 -0.820209,-2.487083 -1.217084,-3.757083 -0.238125,-0.740834 -0.47625,-1.481667 -0.582083,-2.248959 -0.07937,-0.502708 0.07938,-1.058333 0.423333,-1.481666 0.291042,-0.343959 0.687917,-0.449792 1.164167,-0.502709 0.873125,-0.05292 1.693333,0.105834 2.248958,0.79375 0.396875,0.47625 0.687917,1.031875 0.899584,1.613959 0.343958,0.9525 0.608541,1.931458 0.873125,2.936875 0.132291,0.502708 0.132291,1.058333 0.291041,1.561041 0.07937,0.264584 0.264584,0.529167 0.449792,0.740834 0.238125,0.264583 0.370417,0.555625 0.15875,0.873125 -0.264583,0.423333 -0.05292,0.79375 0.05292,1.164166 0.211666,0.846667 0.635,1.5875 1.217083,2.275417 0.15875,0.185208 0.185208,0.502708 0.264583,0.740833 0.185209,0.767292 0.343959,1.534584 0.555625,2.275417 0.238125,0.873125 0.529167,1.74625 0.820209,2.592917 0.211666,0.582083 0.47625,1.164166 0.740833,1.74625 0.449792,0.978958 0.873125,1.957916 1.402292,2.883958 0.714375,1.243542 1.481666,2.434167 2.275416,3.624792 0.687917,0.978958 1.455209,1.931458 2.2225,2.857499 0.608542,0.740834 1.27,1.455209 1.931459,2.169584 0.343958,0.396875 0.687916,0.820208 1.058333,1.190625 0.47625,0.47625 1.11125,0.370416 1.666875,0.211666 0.529167,-0.15875 0.714375,-0.661458 0.740833,-1.190625 0.05292,-0.661458 0.07937,-1.349375 0.105834,-2.010833 0.02646,-0.423333 0,-0.846667 0,-1.27 0.608541,-0.105833 0.926041,0 1.190625,0.529167 0.238125,0.47625 0.635,0.608541 1.084791,0.529166 1.27,-0.264583 2.275416,-0.899583 2.857496,-2.06375 0.0529,-0.132291 0.0794,-0.264583 0.13229,-0.47625 -0.37041,0.02646 -0.66145,0.05292 -1.00541,0.07938 -0.0529,-0.238124 -0.10584,-0.529166 -0.21167,-0.793749 -0.23812,-0.529167 -0.529164,-1.031875 -0.767289,-1.561042 -0.370417,-0.767292 -0.714375,-1.508125 -0.343958,-2.38125 0.555624,-0.07937 1.508127,0.423333 1.746247,0.9525 0.37042,0.820208 0.68792,1.666875 1.00542,2.513542 0.15875,0.449791 0.47625,0.555625 0.76729,0.185208 0.23812,-0.291042 0.42333,-0.635 0.50271,-0.978958 0.10583,-0.582084 0.13229,-1.164167 0.15875,-1.74625 0.0265,-0.555625 0.26458,-0.978959 0.71437,-1.137709 -0.10583,0.423334 -0.21166,0.820209 -0.3175,1.217084 -0.0794,0.264583 -0.15875,0.529166 -0.21166,0.820208 -0.0265,0.07937 0.0529,0.15875 0.0794,0.264583 0.0794,-0.02646 0.18521,-0.05292 0.23813,-0.105833 0.635,-0.502708 0.89958,-1.27 1.24354,-1.984375 0.34396,-0.740833 0.52916,-1.534583 1.13771,-2.143125 0.47625,-0.47625 1.24354,-0.529167 1.79916,-0.211667 0.58209,0.343959 0.89959,0.767292 0.89959,1.508125 -0.0265,2.116667 0.0264,4.233334 0.10583,6.35 0.0265,0.740833 0.26458,1.455208 0.42333,2.169583 0.0529,0.211667 0.15875,0.343959 0.44979,0.185209 0.15875,-0.105834 0.39688,-0.07937 0.66146,-0.105834 0,-0.05292 0,-0.15875 0.0529,-0.238125 0.15875,-0.211666 0.34396,-0.582083 0.52917,-0.582083 0.26458,0 0.60854,0.185208 0.79375,0.396875 0.29104,0.291042 0.29104,0.687917 0.15875,1.11125 -0.0529,0.132292 0,0.370417 0.0794,0.449792 0.44979,0.396875 0.9525,0.687916 1.5875,0.714375 0.74083,0.02646 1.45521,-0.105834 2.11667,-0.423334 0.58208,-0.264583 0.89958,-0.767291 1.08479,-1.402291 0.23812,-0.873125 -0.0529,-1.640417 -0.23813,-2.434167 -0.34395,-1.508125 -1.05833,-2.8575 -1.5875,-4.28625 -0.3175,-0.873125 -0.52916,-1.772708 -0.8202,-2.645833 -0.0529,-0.132292 -0.21167,-0.291042 -0.37042,-0.343958 -0.52917,-0.211667 -1.08479,-0.423334 -1.61396,-0.608542 -0.18521,-0.07937 -0.21167,-0.132292 -0.18521,-0.396875 0.0529,-0.582083 0.0265,-1.190625 -0.0265,-1.772708 -0.0529,-0.449792 -0.15875,-0.899584 -0.26458,-1.349375 -0.13229,-0.47625 -0.26458,-0.926042 -0.44979,-1.375834 -0.44979,-1.190625 -0.9525,-2.354791 -1.40229,-3.545416 -0.15875,-0.47625 -0.21167,-0.978959 -0.3175,-1.561042 1.11125,0.449792 1.79916,1.137708 2.24896,2.090208 0.42333,0.873125 0.71437,1.799167 1.11125,2.672292 0.13229,0.291042 0.37041,0.529167 0.58208,0.767292 0.37042,0.423333 0.74083,0.846666 1.13771,1.243541 1.00541,1.11125 1.98437,2.248959 3.04271,3.280834 0.66145,0.635 1.4552,1.190625 2.27541,1.640416 0.52917,0.291042 0.87313,0.687917 1.21709,1.164167 0.44979,0.635 0.89958,1.27 1.40229,1.825625 0.47625,0.502708 1.13771,0.740833 1.79916,0.79375 0.50271,0.05292 0.92605,-0.370417 0.9525,-0.899583 0,-0.3175 0.0265,-0.635 0,-0.9525 -0.0794,-0.502709 0.10584,-0.79375 0.58209,-0.873125 0.44979,-0.07937 0.71437,-0.423334 0.89958,-0.767292 0.34396,-0.635 0.60854,-1.296458 0.87313,-1.957917 0.15875,-0.423333 0.5027,-0.529166 0.87312,-0.529166 1.00542,0.02646 1.93146,-0.238125 2.77813,-0.767292 0.26458,-0.15875 0.34395,-0.343958 0.37041,-0.661458 0.13229,-0.978959 0.0265,-2.010834 0.47625,-2.936875 0.47625,-0.9525 1.53459,-0.9525 2.16959,-0.370417 0.47625,0.449792 0.635,1.005417 0.635,1.613958 0.0264,0.687917 0,1.375834 0,2.116667 0.37041,-0.02646 0.58208,-0.264583 0.66145,-0.502708 0.21167,-0.608542 0.39688,-1.217084 0.50271,-1.852084 0.10584,-0.635 0.0265,-1.322916 0.13229,-1.957916 0.18521,-0.926042 0.0529,-1.931459 0.60855,-2.778125 0.0794,-0.105834 0.15875,-0.211667 0.23812,-0.291042 0.0265,0.02646 0.0794,0.02646 0.10583,0.05292 -0.0529,0.3175 -0.13229,0.608541 -0.15875,0.926041 -0.0529,1.137709 -0.0529,2.248959 -0.13229,3.386667 -0.0529,1.058333 -0.15875,2.116667 -0.23812,3.175 -0.0529,0.529167 -0.18521,1.058333 -0.23813,1.613958 -0.0265,0.238125 0.0265,0.529167 0.15875,0.740834 0.635,1.005416 1.34938,1.984375 2.16959,2.831041 0.44979,0.449792 0.79375,1.005417 1.16416,1.508125 0.15875,0.211667 0.3175,0.238125 0.55563,0.07937 0.74083,-0.449791 1.16416,-1.164166 1.5875,-1.878541 0.3175,-0.555625 0.55562,-1.164167 0.87312,-1.74625 0.3175,-0.555625 0.76729,-1.005417 1.34938,-1.296459 0.10583,-0.05292 0.21166,-0.05292 0.34396,-0.105833 -0.0529,0.3175 -0.0529,0.608542 -0.15875,0.820208 -0.23813,0.47625 -0.52917,0.926042 -0.84667,1.349375 -0.3175,0.449792 -0.68792,0.846667 -1.00542,1.27 -0.34396,0.47625 -0.39687,1.031875 -0.29104,1.640417 0.3175,0.105833 0.52917,-0.05292 0.76729,-0.238125 0.9525,-0.820208 1.48167,-1.878542 2.03729,-2.963333 0.3175,-0.635 0.74084,-1.27 1.19063,-1.825625 0.21167,-0.264584 0.58208,-0.396875 0.89958,-0.582084 0.0529,0.05292 0.10584,0.07937 0.15875,0.132292 -0.13229,0.343958 -0.23812,0.740833 -0.42333,1.058333 -0.26458,0.449792 -0.635,0.873125 -0.92604,1.322917 -0.0529,0.07937 -0.0265,0.185208 -0.0529,0.264583 0.0794,0 0.18521,0 0.26458,0 0.29105,-0.07937 0.58209,-0.105833 0.84667,-0.238125 0.9525,-0.449791 1.50813,-1.243541 2.03729,-2.090208 0.635,-1.058333 1.21709,-2.143125 2.09021,-3.01625 1.53458,-1.561042 3.06917,-3.122083 4.57729,-4.709583 0.3175,-0.3175 0.55563,-0.687917 0.82021,-1.058334 0.21167,-0.291041 0.55563,-0.396875 0.89958,-0.423333 0.58209,-0.02646 1.16417,-0.05292 1.74625,0 0.42334,0.02646 0.84667,0.15875 1.27,0.291042 0.18521,0.05292 0.3175,0.15875 0.29105,0.423333 -0.0265,0.211667 0.10583,0.449792 0.13229,0.661458 0.0794,1.164167 -0.23813,2.2225 -0.76729,3.254375 -0.60855,1.243542 -1.5875,2.196042 -2.59292,3.095625 -0.82021,0.767292 -1.71979,1.455209 -2.61938,2.143125 -1.34937,1.005417 -2.64583,2.037292 -3.75708,3.280834 -1.03187,1.137708 -1.85208,2.407708 -2.2225,3.889374 -0.0529,0.185209 -0.10583,0.396875 -0.10583,0.582084 0,0.07937 0.18521,0.211666 0.29104,0.211666 0.34396,0.05292 0.60854,-0.07937 0.84667,-0.291041 0.23812,-0.211667 0.44979,-0.449792 0.71437,-0.582084 0.13229,-0.07937 0.34396,0 0.52917,0 -0.0265,0.15875 -0.0265,0.370417 -0.10584,0.47625 -0.47625,0.449792 -0.9525,0.846667 -1.4552,1.27 -0.58209,0.47625 -1.13771,0.978959 -1.11125,1.799167 0.0529,1.11125 0.71437,1.931458 1.93145,1.957917 0.68792,0.02646 1.4023,-0.105834 2.09021,-0.291042 1.42875,-0.396875 2.8575,-0.873125 4.25979,-1.322917 0.87313,-0.264583 1.7198,-0.608541 2.59292,-0.846666 0.82021,-0.238125 1.66688,-0.423334 2.48708,-0.635 0.47625,-0.132292 0.9525,-0.238125 1.45521,-0.370417 0.13229,0.3175 -0.10583,0.449792 -0.29104,0.529167 -0.47625,0.185208 -0.9525,0.343958 -1.42875,0.502708 -0.13229,0.05292 -0.23812,0.105833 -0.47625,0.238125 0.76729,0.3175 1.42875,0.582083 2.09021,0.846667 0.47625,0.185208 0.92604,0.396875 1.19062,0.820208 0.10584,0.15875 0.0794,0.370417 0.0265,0.608542 -0.0794,-0.05292 -0.15875,-0.132292 -0.23812,-0.185209 -0.0794,-0.02646 -0.23813,-0.05292 -0.26459,-0.02646 -0.3175,0.502708 -0.8202,0.608542 -1.4552,0.582083 0.10583,0.238125 0.23812,0.396875 0.26458,0.582084 0.0529,0.185208 0,0.396875 0,0.661458 -0.47625,-0.15875 -0.9525,-0.3175 -1.40229,-0.47625 -0.0265,0.02646 -0.0794,0.05292 -0.10584,0.05292 0.15875,0.238125 0.29105,0.555625 0.50271,0.661458 0.44979,0.211667 0.92604,0.3175 1.42875,0.396875 0.47625,0.07937 0.97896,0.07937 1.48167,0.105833 0.0794,0 0.18521,-0.05292 0.23812,-0.105833 1.32292,-1.296458 2.9898,-2.090208 4.63021,-2.831042 1.40229,-0.635 2.88396,-1.11125 4.33917,-1.613958 0.71437,-0.238125 1.45521,-0.370417 2.16958,-0.582083 0.0265,0.05292 0.0529,0.105833 0.0794,0.132291 -0.37042,0.238125 -0.71438,0.529167 -1.13771,0.714375 -1.03188,0.449792 -2.06375,0.846667 -3.09563,1.27 -0.47625,0.185209 -0.97895,0.343959 -1.40229,0.608542 -0.3175,0.211667 -0.52916,0.608542 -0.79375,0.926042 -0.10583,0.132291 -0.18521,0.291041 -0.3175,0.423333 -0.84666,0.873125 -1.71979,1.719792 -2.56646,2.592917 -0.26458,0.264583 -0.44979,0.582083 -0.635,0.873125 -0.21166,0.370416 0,0.714375 0.42334,0.714375 0.44979,0 0.89958,-0.02646 1.37583,-0.02646 0.13229,0 0.26458,0.02646 0.39688,0.05292 -0.71438,0.582083 -1.42875,1.137708 -2.11667,1.693333 -0.15875,0.132292 -0.23813,0.3175 -0.37042,0.47625 -0.3175,0.343959 -0.635,0.635 -0.9525,0.978959 -0.23812,0.238125 -0.42333,0.529166 -0.66146,0.767291 -0.5027,0.47625 -1.00541,0.926042 -1.53458,1.375834 -0.39687,0.3175 -0.84667,0.529166 -1.24354,0.820208 -0.0794,0.05292 -0.10583,0.264583 -0.0529,0.370417 0.34396,0.661458 0.66146,1.322916 0.55563,2.090208 0,0.07937 0.0265,0.15875 0.0529,0.238125 0.18521,0.555625 0,0.820208 -0.60854,0.846667 -0.21166,0 -0.42333,0 -0.71437,0 0.29104,0.529166 0.76729,0.661458 1.16416,0.79375 0.92605,0.343958 1.905,0.582083 2.91042,0.635 0.66146,0.02646 1.32292,0.132291 1.98438,0.238125 1.19062,0.238125 2.4077,0.423333 3.57187,0.767291 1.03188,0.3175 1.87854,1.005417 2.30188,2.090209 0,0 0.0264,0.02646 0.0264,0.02646 -0.13229,0.3175 -0.15875,0.79375 -0.39687,0.899583 -0.71438,0.343958 -1.32292,0.79375 -1.95792,1.217083 -0.39687,0.264584 -0.87312,0.3175 -1.37583,-0.07938 0.39687,-0.02646 0.68792,-0.02646 1.00542,-0.05292 0.1852,-0.291042 0,-0.423334 -0.21167,-0.502709 -0.9525,-0.396875 -1.87854,-0.79375 -2.83104,-1.137708 -0.92604,-0.343958 -1.87854,-0.635 -2.83104,-0.873125 -0.7673,-0.185208 -1.56105,-0.185208 -2.32834,-0.370416 -1.37583,-0.343959 -2.77812,-0.264584 -4.15396,-0.238125 -0.92604,0.02646 -1.87854,0.15875 -2.77812,0.47625 -0.71438,0.238125 -1.42875,0.47625 -2.11667,0.740833 -0.26458,0.105833 -0.50271,0.238125 -0.74083,0.396875 -0.18521,0.132291 -0.26458,0.291041 -0.0529,0.47625 0.3175,0.264583 0.60854,0.608541 0.97896,0.79375 1.00542,0.529166 2.03729,1.005416 3.04271,1.534583 0.44979,0.238125 0.84667,0.529167 1.24354,0.820208 0.0794,0.05292 0.10583,0.185209 0.13229,0.264584 -1.74625,-0.79375 -3.51896,-1.613959 -5.3975,-2.460625 -0.10583,0.396875 -0.23812,0.740833 -0.26458,1.137708 -0.0529,0.449792 -0.0265,0.926042 0,1.375833 0.0529,0.899584 0.15875,1.799167 0.26458,2.672292 0,0.105833 0.10584,0.185208 0.18521,0.264588 0.76729,0.71437 1.48167,1.48167 2.27542,2.14312 0.9525,0.7673 1.95791,1.42875 2.96333,2.14313 0.82021,0.58208 1.64042,1.16417 2.40771,1.77271 0.92604,0.71437 1.82562,1.48166 2.75167,2.24896 1.21708,1.00541 2.16958,2.2225 2.91041,3.62479 0.21167,0.39687 0.44979,0.79375 0.66146,1.19062 -0.0265,0.0529 -0.0529,0.0794 -0.0794,0.13229 -0.37042,-0.0529 -0.7673,-0.0794 -1.11125,-0.15875 -1.32292,-0.34395 -2.43417,-1.08479 -3.46605,-1.93145 -1.1377,-0.9525 -2.27541,-1.87855 -3.4925,-2.72521 -0.55562,-0.39688 -1.27,-0.52917 -1.93145,-0.82021 -0.10584,-0.0529 -0.21167,-0.21167 -0.26459,-0.34396 -0.15875,-0.50271 -0.21166,-1.03187 -0.39687,-1.50812 -0.29104,-0.7673 -0.92604,-1.21709 -1.5875,-1.61396 -1.21709,-0.68792 -2.46063,-1.37584 -3.73063,-1.98438 -0.68791,-0.3175 -1.45521,-0.44979 -2.19604,-0.635 -0.3175,-0.0794 -0.66146,-0.15875 -1.00542,-0.13229 -1.40229,0.0794 -2.35479,0.79375 -2.88395,2.09021 -0.0794,0.21167 -0.10584,0.44979 -0.1323,0.68792 -0.0529,1.21708 -0.21166,2.46062 -0.10583,3.65125 0.15875,1.69333 0.52917,3.38666 1.16417,4.97416 0.42333,1.08479 0.87312,2.16959 1.34937,3.22792 0.74084,1.5875 1.53459,3.14854 2.24896,4.7625 0.71438,1.64042 1.32292,3.30729 1.93146,5.00062 0.34396,0.89959 0.635,1.82563 0.9525,2.75167 0.44979,1.37583 0.87312,2.72521 1.32292,4.10104 0.13229,0.42334 0.29104,0.84667 0.42333,1.27 0.10583,0.34396 0.13229,0.66146 -0.10583,1.00542 -0.15875,0.21167 -0.0794,0.58208 -0.0794,0.89958 0.0265,0.50271 0.0529,1.00542 0.13229,1.50813 0.0529,0.37041 -0.13229,0.55562 -0.42333,0.635 -1.19063,0.39687 -2.40771,0.0265 -3.12208,-1.05834 -0.68792,-1.00541 -1.03188,-2.16958 -1.27,-3.3602 -0.15875,-0.79375 -0.29105,-1.61396 -0.52917,-2.40771 -0.10583,-0.34396 -0.42333,-0.635 -0.60854,-0.9525 -0.0794,-0.13229 -0.15875,-0.37042 -0.10584,-0.44979 0.47625,-0.60855 0.10584,-1.16417 -0.0794,-1.69334 -0.23813,-0.68791 -0.50271,-1.34937 -1.08479,-1.87854 -0.18521,-0.15875 -0.18521,-0.52917 -0.26459,-0.82021 -0.37041,-1.40229 -0.68791,-2.8575 -1.1377,-4.23333 -0.37042,-1.11125 -0.87313,-2.16958 -1.37584,-3.22792 -0.50271,-1.08479 -1.03187,-2.14312 -1.64041,-3.14854 -0.52917,-0.89958 -1.0848,-1.77271 -1.7198,-2.61937 -0.76729,-1.03188 -1.56104,-2.06375 -2.4077,-3.01625 -0.89959,-1.05834 -1.87855,-2.09021 -2.83105,-3.09563 -0.55562,-0.58208 -1.905,-0.50271 -2.19604,0.52917 -0.29104,1.00541 -0.29104,1.98437 -0.15875,2.98979 0.0265,0.23812 0.0794,0.66146 -0.3175,0.79375 -0.3175,0.10583 -0.60854,-0.0265 -0.79375,-0.29104 -0.23812,-0.34396 -0.37041,-0.76729 -0.89958,-0.74084 -0.42333,0.0265 -0.84667,-0.0794 -1.24354,0.21167 -0.42334,0.3175 -0.92604,0.55563 -1.34938,0.89958 -0.29104,0.23813 -0.50271,0.60855 -0.68791,0.9525 -0.0529,0.10584 0,0.3175 0.0794,0.39688 0.0529,0.0794 0.23813,0.0794 0.37042,0.0529 0.15875,-0.0265 0.3175,-0.0794 0.52916,-0.1323 0.0265,1.0848 0.7673,1.85209 1.16417,2.80459 0.23813,0.58208 0.52917,1.16416 0.18521,1.82562 -0.0265,0.0794 -0.15875,0.13229 -0.23813,0.13229 -0.79375,-0.0529 -1.32291,-0.52916 -1.66687,-1.16416 -0.37042,-0.71438 -0.60854,-1.50813 -0.89958,-2.27542 -0.15875,-0.47625 -0.42334,-0.58208 -0.82021,-0.21167 -0.34396,0.3175 -0.44979,0.74084 -0.47625,1.16417 -0.0794,0.68792 -0.13229,1.40229 -0.26459,2.09021 -0.0529,0.23812 -0.26458,0.44979 -0.39687,0.66146 -0.0529,-0.0265 -0.13229,-0.0529 -0.18521,-0.0794 0.18521,-0.74083 0.37042,-1.50812 0.58208,-2.35479 -0.52916,0.10583 -0.74083,0.39688 -0.89958,0.71438 -0.50271,1.00541 -0.97896,2.03729 -1.48167,3.0427 -0.29104,0.58209 -0.71437,1.03188 -1.42875,1.00542 -0.92604,-0.0265 -1.64041,-0.79375 -1.64041,-1.69333 -0.0265,-2.19604 -0.0265,-4.39209 -0.13229,-6.58813 -0.0265,-0.76729 -0.29105,-1.53458 -0.4498,-2.27541 -0.34395,0.0794 -0.60854,0.10583 -0.84666,0.21166 -0.10584,0.0265 -0.18521,0.15875 -0.26459,0.23813 -0.21166,0.23812 -0.1852,0.76729 -0.71437,0.60854 -0.55563,-0.15875 -0.92604,-0.76729 -0.82021,-1.29646 0.0529,-0.18521 0.18521,-0.44979 0.10583,-0.58208 -0.15875,-0.21167 -0.42333,-0.37042 -0.66145,-0.50271 -0.58209,-0.3175 -1.19063,-0.39688 -1.87855,-0.29104 -0.60854,0.10583 -1.19062,0.26458 -1.66687,0.635 -0.37042,0.29104 -0.55563,0.66146 -0.68792,1.11125 -0.29104,0.97896 0.0265,1.905 0.3175,2.80458 0.52917,1.56104 1.16417,3.09563 1.74625,4.63021 0.21167,0.58208 0.39688,1.16417 0.50271,1.77271 0.0794,0.50271 0.47625,0.55562 0.79375,0.71437 0.18521,0.10584 0.42333,0.10584 0.635,0.15875 0.635,0.18521 0.74083,0.34396 0.76729,1.00542 0.0265,0.68792 0,1.37583 0.13229,2.06375 0.10584,0.635 0.37042,1.27 0.60855,1.87854 0.47625,1.27 1.03187,2.51354 1.48166,3.78354 0.15875,0.44979 0.21167,0.97896 0.3175,1.45521 -0.0265,0.0265 -0.0529,0.0529 -0.10583,0.0794 -0.3175,-0.18521 -0.68792,-0.34396 -0.9525,-0.60855 -0.79375,-0.68791 -1.37583,-1.50812 -1.69333,-2.54 -0.18521,-0.58208 -0.39688,-1.1377 -0.60855,-1.69333 -0.0529,-0.10583 -0.15875,-0.18521 -0.23812,-0.29104 -0.47625,-0.50271 -0.9525,-1.03188 -1.42875,-1.53458 -0.97896,-1.0848 -1.905,-2.2225 -2.93688,-3.28084 -0.74083,-0.74083 -1.56104,-1.42875 -2.56645,-1.82562 -0.68792,-0.26459 -0.92605,-0.89959 -1.27,-1.40229 -0.55563,-0.82021 -1.11125,-1.61396 -2.06375,-2.06375 -0.34396,-0.15875 -0.71438,-0.26459 -1.05834,-0.34396 -0.29104,-0.0529 -0.84666,0.60854 -0.87312,1.00541 0,0.4498 0.0265,0.89959 -0.0265,1.32292 0,0.13229 -0.18521,0.37042 -0.26458,0.37042 -0.74084,-0.0265 -1.0848,0.50271 -1.34938,1.03187 -0.3175,0.60854 -0.52917,1.27 -0.76729,1.905 -0.0794,0.21167 -0.18521,0.34396 -0.47625,0.34396 -0.978957,0 -1.931457,0.21167 -2.831041,0.60854 -0.47625,0.21167 -0.661458,0.52917 -0.714375,1.08479 -0.105833,0.97896 -0.05292,1.98438 -0.555625,2.88396 -0.238125,0.39688 -0.582083,0.58209 -1.058333,0.58209 -0.47625,0 -0.899583,-0.1323 -1.164167,-0.47625 -0.3175,-0.39688 -0.502708,-0.87313 -0.502708,-1.42875 0,-0.74084 0,-1.45521 0,-2.27542 -0.555625,0.39687 -0.899583,0.84667 -1.031875,1.45521 -0.211667,0.9525 -0.185208,1.905 -0.264583,2.8575 -0.07937,0.92604 -0.05292,1.87854 -0.47625,2.72521 -0.105834,0.1852 -0.238125,0.34395 -0.370417,0.52916 -0.02646,0 -0.07937,-0.0265 -0.105833,-0.0265 0.05292,-0.23812 0.07937,-0.5027 0.132291,-0.74083 0,-0.0794 0.02646,-0.13229 0.02646,-0.21167 0.02646,-0.97895 0.05292,-1.95791 0.132291,-2.93687 0.05292,-0.87313 0.15875,-1.74625 0.238125,-2.59292 0,-0.10583 0,-0.21166 0,-0.34396 0.07937,-0.76729 0.15875,-1.50812 0.238125,-2.27541 0.05292,-0.52917 -0.211666,-0.9525 -0.47625,-1.32292 -0.687916,-0.89958 -1.42875,-1.77271 -2.143125,-2.67229 -0.396875,-0.47625 -0.767291,-0.9525 -1.137708,-1.42875 -1.005417,0.42333 -1.481667,1.27 -1.905,2.14312 -0.449792,0.89959 -0.846667,1.82563 -1.613958,2.51355 -0.238125,0.21166 -0.582084,0.34395 -0.926042,0.55562 0.07938,-1.21708 0.740833,-1.98437 1.42875,-2.72521 0.529167,-0.55562 1.005417,-1.19062 0.899583,-2.06375 -0.02646,-0.15875 -0.07937,-0.29104 -0.132291,-0.44979 -0.899584,0.42333 -1.481667,1.08479 -1.931459,1.905 -0.529166,0.97896 -1.084791,1.93146 -1.613958,2.91042 -0.211667,0.37041 -0.820208,0.79375 -1.296458,0.89958 -0.105834,-0.52917 0.238125,-0.89958 0.47625,-1.29646 0.264583,-0.44979 0.582083,-0.84666 0.9525,-1.34937 -0.661459,-0.0529 -1.137709,0.10583 -1.613959,0.42333 -1.084791,0.71438 -1.5875,1.87854 -2.248958,2.93688 -0.343958,0.52916 -0.661458,1.05833 -1.084792,1.50812 -1.534583,1.61396 -3.095625,3.175 -4.630208,4.78896 -0.449791,0.47625 -0.846666,1.00542 -1.243541,1.50812 -0.07937,0.10584 -0.211667,0.26459 -0.3175,0.26459 -0.740834,0.10583 -1.481667,0.34396 -2.248959,0.0529 -0.211666,-0.0794 -0.47625,-0.0794 -0.714375,-0.13229 -0.687916,-0.10583 -0.899583,-0.3175 -0.926041,-1.00541 -0.07937,-1.64042 0.343958,-3.14855 1.402291,-4.41855 0.396875,-0.5027 0.767292,-1.03187 1.243542,-1.4552 0.661458,-0.60855 1.375833,-1.13771 2.06375,-1.7198 0.687917,-0.55562 1.375833,-1.16416 2.090208,-1.69333 1.164167,-0.87312 2.196042,-1.87854 3.148542,-2.93687 0.899583,-1.00542 1.640416,-2.11667 1.931458,-3.46605 -0.05292,-0.29104 0.02646,-0.58208 0.105833,-0.87312 z M 152.24881,83.416181 c 0.37041,0.211667 0.76729,0.396875 1.11125,0.661459 0.23812,0.185208 0.55562,0.423333 0.60854,0.661458 0.10583,0.635 0.26458,1.217083 0.635,1.772708 0.58208,0.899584 1.85208,1.296459 2.72521,1.031875 1.16416,-0.343958 1.66687,-1.693333 1.42875,-2.645833 -0.4498,-0.185208 -0.82021,-0.343958 -1.19063,-0.529167 -0.66146,-0.3175 -1.08479,-0.873125 -1.53458,-1.42875 -0.3175,-0.396875 -0.50271,-0.529166 -1.03188,-0.3175 -0.50271,0.185209 -1.13771,0.105834 -1.69333,0.132292 -0.44979,0 -0.87313,0.07937 -1.05833,0.661458 z M 76.181098,95.110764 c -0.370416,-0.211666 -0.714375,-0.423333 -1.058333,-0.635 -0.370417,-0.238125 -0.820208,-0.423333 -0.740833,-1.031875 0.02646,-0.343958 -0.105834,-0.740833 -0.291042,-1.031874 -0.449792,-0.714375 -1.005417,-1.322917 -1.878541,-1.508125 -0.714375,-0.132292 -1.693334,-0.05292 -2.169584,0.820208 -0.15875,0.3175 -0.343958,0.661458 -0.449791,1.005417 -0.185209,0.582083 0,0.899583 0.608541,1.111249 0.926042,0.3175 1.5875,0.978959 2.143125,1.74625 0.264584,0.370417 0.47625,0.47625 0.926042,0.291042 0.05292,-0.02646 0.132291,-0.05292 0.185208,-0.05292 0.582083,-0.05292 1.164167,-0.132291 1.74625,-0.132291 0.396875,0 0.687917,-0.132292 0.978958,-0.582084 z M 155.79422,79.077015 c -1.00541,0.105833 -1.79916,0.423333 -2.30187,1.296458 0.18521,0.15875 0.34396,0.3175 0.55562,0.423333 0.76729,0.449792 1.61396,0.370417 2.35479,0.02646 0.97896,-0.423334 1.85209,-1.058334 2.75167,-1.613959 0.0794,-0.05292 0.13229,-0.211666 0.10583,-0.3175 -0.0529,-0.291041 -0.15875,-0.555625 -0.21166,-0.846666 -0.10584,-0.608542 -0.21167,-0.687917 -0.79375,-0.582084 -0.23813,0.05292 -0.47625,0.07937 -0.71438,0.132292 -0.79375,0.185208 -1.5875,0.3175 -2.35479,0.529167 -0.3175,0.105833 -0.76729,0.211666 -0.79375,0.687916 0.42333,0.3175 0.9525,-0.238125 1.40229,0.264584 z M 69.566515,101.11681 c 0.820209,-0.15875 1.5875,-0.29105 2.328334,-0.47625 0.582083,-0.1323 1.137708,-0.3175 1.693333,-0.52917 0.185208,-0.0529 0.291041,-0.291042 0.449791,-0.449792 -0.47625,-0.15875 -0.926041,0.07937 -1.349374,-0.211667 0.132291,-0.07938 0.211666,-0.132292 0.291041,-0.15875 0.02646,-0.02646 0.07937,0 0.132292,0 0.767291,-0.05292 1.27,-0.502708 1.74625,-1.031875 0.05292,-0.05292 0.02646,-0.238125 -0.02646,-0.264583 -0.291041,-0.185209 -0.555625,-0.370417 -0.873125,-0.502709 -0.635,-0.264583 -1.296458,-0.105833 -1.904999,0.132292 -1.084792,0.423333 -2.090209,0.978958 -2.936875,1.772708 0.15875,0.582084 0.291041,1.164166 0.449792,1.719796 z m 3.598333,3.46604 c -0.02646,-0.0529 -0.05292,-0.13229 -0.07938,-0.18521 -0.634999,0.0794 -1.269999,0.13229 -1.878541,0.29104 -1.005417,0.26458 -1.957917,0.52917 -2.963333,0 -0.07937,-0.0529 -0.3175,0 -0.370417,0.0794 -0.502708,0.635 -0.635,1.40229 -0.555625,2.19604 0.05292,0.47625 0.3175,0.60854 0.740833,0.42333 0.423334,-0.18521 0.846667,-0.34396 1.27,-0.47625 0.79375,-0.29104 1.613959,-0.55562 2.407709,-0.87312 0.687916,-0.29105 1.137708,-0.79375 1.428749,-1.45521 z M 155.2386,73.970556 c 0.3175,0.02646 0.60854,0.132292 0.89958,0.07937 0.55563,-0.105833 1.11125,-0.291041 1.66688,-0.449791 0.84666,-0.238125 1.66687,-0.3175 2.4077,0.3175 0.92605,-0.608542 1.11125,-2.460625 0.58209,-2.936875 -1.05834,0.343958 -2.11667,0.661458 -3.12209,1.031875 -1.00541,0.343958 -2.01083,0.714375 -2.43416,1.957916 z M 69.48714,102.12222 c 0.687917,0.0794 1.243542,-0.21166 1.455209,-0.71437 -0.899584,-0.15875 -1.481667,0.10583 -1.455209,0.71437 z m 89.42917,-25.691039 c -0.7673,-0.132291 -1.45521,0.211667 -1.48167,0.714375 0.71437,0.105834 1.34937,-0.185208 1.48167,-0.714375 z"
         id="path12"
         style="fill:#ffff00;stroke-width:0.264583" />
      <path
         class="st0"
         d="m 86.737973,139.11097 c -0.423333,0.37042 -0.820208,0.71438 -1.243541,1.05834 -0.529167,0.44979 -1.058334,0.89958 -1.561042,1.37583 -0.105833,0.10583 -0.105833,0.39687 -0.02646,0.55562 0.555625,1.21709 -0.370417,2.46063 -1.666875,2.46063 -0.502709,0 -1.137709,0.10583 -1.42875,-0.39688 -0.3175,-0.52916 -0.687917,-0.60854 -1.243542,-0.60854 -0.661458,0 -1.349375,-0.13229 -2.010833,-0.23812 -0.132292,-0.0265 -0.238125,-0.10584 -0.343959,-0.21167 -0.767291,-0.74083 -1.481666,-1.53458 -2.275416,-2.24896 -0.449792,-0.39687 -0.529167,-0.92604 -0.555625,-1.42875 -0.02646,-0.74083 -0.02646,-1.53458 0.132291,-2.24896 0.132292,-0.635 0.47625,-1.24354 0.820209,-1.82562 0.740833,-1.21708 1.931458,-1.87854 3.254375,-2.19604 0.873125,-0.18521 1.825625,-0.0794 2.725208,-0.0265 0.555625,0.0265 1.11125,0.21167 1.640417,0.39687 0.449791,0.1323 0.608541,0.60855 0.846666,0.97896 0.740834,1.21709 1.42875,2.46063 2.169584,3.70417 0.211666,0.3175 0.502708,0.58208 0.767291,0.89958 z"
         id="path14"
         style="fill:#ffff00;stroke-width:0.264583" />
      <path
         class="st0"
         d="m 141.61256,39.363057 c 0.55562,-0.449792 1.11125,-0.846667 1.64041,-1.296458 0.44979,-0.370417 0.84667,-0.79375 1.21709,-1.243542 0.0794,-0.105833 0.0794,-0.370417 0,-0.529167 -0.47625,-0.978958 0.0794,-2.010833 1.08479,-2.328333 0.60854,-0.211667 1.21708,-0.15875 1.77271,0.132292 0.15875,0.07938 0.29104,0.238125 0.37041,0.396875 0.13229,0.343958 0.39688,0.449791 0.74084,0.47625 0.84666,0.07937 1.69333,0.105833 2.51354,0.264583 0.29104,0.05292 0.52916,0.396875 0.76729,0.635 0.635,0.608542 1.24354,1.217083 1.85208,1.852083 0.13229,0.132292 0.29104,0.291042 0.29104,0.47625 0.10584,1.11125 0.23813,2.196042 -0.0794,3.33375 -0.50271,1.640417 -1.50813,2.751667 -3.01625,3.413125 -0.60854,0.264583 -1.24354,0.47625 -1.95792,0.47625 -0.55562,-0.02646 -1.13771,0.05292 -1.69333,-0.02646 -0.635,-0.105834 -1.29646,-0.211667 -1.85208,-0.529167 -0.37042,-0.211667 -0.60855,-0.740833 -0.87313,-1.137708 -0.60854,-1.031875 -1.16417,-2.090209 -1.77271,-3.122084 -0.23812,-0.423333 -0.60854,-0.767291 -1.00541,-1.243541 z"
         id="path16"
         style="fill:#ffff00;stroke-width:0.264583" />
      <path
         class="st0"
         d="m 106.68756,31.187432 c 0.10583,-1.031875 0.1852,-1.878542 0.89958,-2.460625 0.34396,-0.264583 0.76729,-0.423333 1.19062,-0.582083 0.21167,-0.07937 0.42334,-0.15875 0.635,-0.15875 1.13771,0.02646 2.06375,0.529166 2.72521,1.42875 0.44979,0.608541 0.82021,1.27 1.13771,1.957916 0.23813,0.555625 0.34396,1.190625 0.50271,1.772709 0.0265,0.132291 0.10583,0.238125 0.13229,0.370416 0.15875,0.846667 -0.44979,2.06375 -1.29646,2.407709 -0.26458,0.105833 -0.66146,0.07937 -0.97896,-0.02646 -0.71437,-0.238125 -1.4552,-0.529166 -2.11666,-0.873125 -1.05834,-0.555625 -2.01084,-1.296458 -2.48709,-2.460625 -0.15875,-0.47625 -0.26458,-1.031875 -0.34395,-1.375833 z"
         id="path18"
         style="fill:#ffff00;stroke-width:0.264583" />
      <path
         class="st0"
         d="m 121.68943,147.33951 c -0.0794,1.00542 -0.23812,1.82563 -0.92604,2.43417 -0.39688,0.37042 -0.87313,0.55563 -1.37583,0.60854 -0.68792,0.0794 -1.34938,0.0529 -1.98438,-0.3175 -0.58208,-0.34396 -1.00542,-0.84666 -1.40229,-1.37583 -0.52917,-0.71438 -0.9525,-1.50813 -1.16417,-2.35479 -0.15875,-0.60854 -0.3175,-1.21709 -0.3175,-1.82563 0,-0.74083 0.37042,-1.40229 1.00542,-1.85208 0.47625,-0.34396 1.00542,-0.21167 1.45521,0 0.87312,0.37042 1.74625,0.76729 2.56646,1.24354 1.03187,0.60854 1.71979,1.50813 1.98437,2.69875 0.0794,0.26458 0.13229,0.58208 0.15875,0.74083 z"
         id="path20"
         style="fill:#ffff00;stroke-width:0.264583" />
      <path
         class="st0"
         d="m 89.516098,54.444307 c 1.243542,-0.185209 2.06375,1.322916 1.772709,2.407708 -0.238125,0.899583 -0.899584,1.375833 -1.799167,1.534583 -0.132292,0.02646 -0.264583,0.07937 -0.396875,0.105834 -0.635,0.132291 -1.058333,-0.185209 -1.455208,-0.635 -0.370417,-0.423334 -0.582084,-0.873125 -0.529167,-1.455209 0.05292,-0.79375 0.502708,-1.243541 1.11125,-1.5875 0.396875,-0.211666 0.820208,-0.343958 1.243542,-0.502708 0.02646,0.05292 0.02646,0.105833 0.05292,0.132292 z"
         id="path22"
         style="fill:#ffff00;stroke-width:0.264583" />
      <path
         class="st0"
         d="m 139.41651,120.00806 c 0.84667,0 1.50813,0.42333 1.77271,1.24354 0.21167,0.66146 0.0794,1.32291 -0.42333,1.87854 -0.50271,0.55562 -1.16417,0.87312 -1.85208,0.92604 -0.82021,0.0794 -1.4023,-0.29104 -1.74625,-1.21708 -0.29105,-0.79375 -0.15875,-1.53459 0.42333,-2.11667 0.50271,-0.47625 1.16417,-0.79375 1.82562,-0.71437 z"
         id="path24"
         style="fill:#ffff00;stroke-width:0.264583" />
      <path
         class="st0"
         d="m 87.10839,145.19639 c 0.07937,-0.42333 0.15875,-0.84667 0.211667,-1.27 0.05292,-0.39688 0.105833,-0.76729 0.15875,-1.16417 0.07937,-0.87312 0.396875,-1.66687 1.005416,-2.32833 0.47625,-0.52917 0.687917,-1.16417 0.740834,-1.79917 0.105833,-1.34937 0.105833,-2.72521 0.15875,-4.07458 0.02646,-0.66146 0.132291,-1.27 0.47625,-1.85208 0.3175,-0.55563 0.396875,-0.60855 1.005416,-0.34396 0.105834,0.0529 0.211667,0.0529 0.291042,0.0794 -0.15875,0.74084 -0.291042,1.50813 -0.449792,2.24896 -0.185208,0.89958 -0.423333,1.77271 -0.608541,2.67229 -0.132292,0.635 -0.211667,1.29646 -0.396875,1.93146 -0.238125,0.89958 -0.47625,1.82563 -0.820209,2.67229 -0.370416,0.9525 -0.846666,1.85209 -1.296458,2.77813 -0.07937,0.18521 -0.238125,0.34396 -0.343958,0.52916 -0.05292,-0.0529 -0.105834,-0.0529 -0.132292,-0.0794 z"
         id="path26"
         style="fill:#ffff00;stroke-width:0.264583" />
      <path
         class="st0"
         d="m 137.22047,45.97764 c 0.13229,-0.47625 0.26459,-0.926042 0.37042,-1.375833 0.18521,-0.740834 0.34396,-1.481667 0.47625,-2.248959 0.13229,-0.714375 0.23812,-1.42875 0.39687,-2.143125 0.18521,-0.793749 0.37042,-1.587499 0.635,-2.354791 0.37042,-1.084792 0.79375,-2.169583 1.24355,-3.227917 0.21166,-0.47625 0.55562,-0.899583 0.8202,-1.375833 0.0265,0.02646 0.0794,0.02646 0.10584,0.05292 -0.10584,0.714375 -0.21167,1.455208 -0.34396,2.169583 -0.0529,0.370417 -0.0529,0.740833 -0.18521,1.084792 -0.18521,0.449791 -0.39687,0.899583 -0.71437,1.243541 -0.635,0.740834 -0.87313,1.5875 -0.89959,2.54 -0.0265,1.27 -0.0529,2.566458 -0.15875,3.836458 -0.0529,0.555625 -0.21166,1.137709 -0.47625,1.640417 -0.29104,0.555625 -0.50271,0.555625 -1.08479,0.264583 -0.0529,-0.02646 -0.13229,-0.07937 -0.18521,-0.105833 z"
         id="path28"
         style="fill:#ffff00;stroke-width:0.264583" />
      <path
         class="st0"
         d="m 165.21339,130.00931 c 0.68792,-0.21167 0.97896,0.26458 1.29646,0.89958 0.58208,1.16417 -0.15875,1.74625 -1.08479,1.905 -0.55563,0.10583 -1.05834,-0.0794 -1.50813,-0.42333 -0.50271,-0.37042 -0.39687,-0.89959 -0.29104,-1.34938 0.0794,-0.3175 0.3175,-0.60854 0.50271,-0.89958 0.0529,-0.0794 0.18521,-0.10584 0.29104,-0.10584 0.21167,-0.0265 0.44979,-0.0265 0.79375,-0.0265 z"
         id="path30"
         style="fill:#ffff00;stroke-width:0.264583" />
      <path
         class="st0"
         d="m 63.428182,48.411807 c -0.185208,0 -0.238125,0 -0.3175,0 -0.79375,0 -1.217083,-0.370417 -1.349375,-1.190625 -0.105833,-0.740834 0.07937,-1.137709 0.740833,-1.455209 0.47625,-0.211666 1.640417,-0.02646 2.037292,0.3175 0.423333,0.370417 0.3175,1.27 0.105833,1.719792 -0.291041,0.608542 -0.740833,0.714375 -1.217083,0.608542 z"
         id="path32"
         style="fill:#ffff00;stroke-width:0.264583" />
      <path
         class="st0"
         d="m 79.356098,129.55951 c -0.02646,0.635 -0.423333,1.03188 -1.164166,1.11125 -0.3175,0.0265 -0.661459,-0.0529 -1.005417,-0.0794 -0.502708,-0.0265 -0.714375,-0.34396 -0.767292,-0.79375 -0.07937,-0.52917 0,-1.05833 0.502709,-1.37583 0.926041,-0.58209 1.878541,-0.39688 2.328333,0.55562 0.07937,0.15875 0.07937,0.39688 0.105833,0.58208 z"
         id="path34"
         style="fill:#ffff00;stroke-width:0.264583" />
      <path
         class="st0"
         d="m 149.04735,48.940973 c 0.0265,-0.714375 0.37041,-1.031875 1.08479,-1.11125 0.50271,-0.05292 0.9525,-0.02646 1.42875,0.132292 0.0794,0.02646 0.15875,0.105833 0.21167,0.185208 0.60854,0.767292 0.0529,2.010834 -0.97896,2.169584 -0.42334,0.07938 -0.76729,0 -1.08479,-0.15875 -0.23813,-0.132292 -0.42334,-0.370417 -0.55563,-0.608542 -0.10583,-0.185208 -0.0794,-0.396875 -0.10583,-0.608542 z"
         id="path36"
         style="fill:#ffff00;stroke-width:0.264583" />
      <path
         class="st0"
         d="m 122.88006,39.998057 c -0.10584,0.926041 -1.21709,1.640416 -2.06375,1.375833 -0.50271,-0.15875 -0.68792,-0.47625 -0.82021,-0.899583 -0.21167,-0.582083 0.58208,-1.693333 1.21708,-1.74625 0.13229,0 0.26458,0.05292 0.37042,0.07937 0.3175,0.132292 0.66146,0.238125 0.89958,0.449792 0.18521,0.15875 0.26458,0.47625 0.39688,0.740833 z"
         id="path38"
         style="fill:#ffff00;stroke-width:0.264583" />
      <path
         class="st0"
         d="m 107.2961,137.04722 c 0.18521,0.0794 0.58208,0.15875 0.82021,0.37042 0.1852,0.15875 0.29104,0.50271 0.26458,0.76729 -0.0529,0.60854 -0.37042,1.08479 -0.87313,1.45521 -0.29104,0.21167 -0.58208,0.10583 -0.87312,-0.0529 -0.13229,-0.0794 -0.26458,-0.23812 -0.42333,-0.23812 -0.23813,0 -0.42334,-0.0794 -0.47625,-0.3175 -0.0794,-0.29104 -0.18521,-0.60854 -0.10584,-0.87313 0.15875,-0.60854 0.87313,-1.11125 1.66688,-1.11125 z"
         id="path40"
         style="fill:#ffff00;stroke-width:0.264583" />
      <path
         class="st0"
         d="m 150.23797,55.714307 c -0.18521,-0.661459 -0.15875,-0.635 0.26459,-1.164167 0.42333,-0.529167 0.79375,-1.11125 1.16416,-1.719792 0.71438,-1.164166 1.48167,-2.248958 2.48709,-3.175 0.0794,-0.07937 0.1852,-0.15875 0.34395,-0.264583 -0.10583,0.873125 -0.39687,1.5875 -0.87312,2.196042 -0.50271,0.687916 -1.08479,1.322916 -1.69333,1.931458 -0.60855,0.635 -1.16417,1.296458 -1.56105,2.06375 -0.0265,0.07937 -0.10583,0.105833 -0.13229,0.132292 z"
         id="path42"
         style="fill:#ffff00;stroke-width:0.264583" />
      <path
         class="st0"
         d="m 78.112557,122.73326 c 0.238125,0.3175 0.264583,0.55563 -0.02646,0.89959 -0.635,0.82021 -1.190625,1.69333 -1.772708,2.54 -0.423333,0.58208 -0.846667,1.19062 -1.296458,1.74625 -0.3175,0.39687 -0.687917,0.74083 -1.084792,1.05833 0.07937,-0.89958 0.423333,-1.69333 0.978958,-2.35479 0.740834,-0.87313 1.561042,-1.71979 2.328334,-2.59292 0.343958,-0.37041 0.582083,-0.82021 0.873126,-1.29646 z"
         id="path44"
         style="fill:#ffff00;stroke-width:0.264583" />
      <path
         class="st0"
         d="m 104.46506,58.704098 c 0.10583,-0.47625 0.1852,-0.978958 0.29104,-1.455208 0.15875,-0.661458 0.26458,-1.349375 0.47625,-1.984375 0.26458,-0.820208 0.58208,-1.613958 0.89958,-2.407708 0.0265,-0.05292 0.21167,-0.07938 0.3175,-0.05292 0.13229,0.05292 0.23813,0.15875 0.29104,0.211667 -0.34396,1.190625 -0.68791,2.328333 -1.03187,3.4925 -0.26459,0.767291 -0.635,1.534583 -1.24354,2.196041 z"
         id="path46"
         style="fill:#ffff00;stroke-width:0.264583" />
      <path
         class="st0"
         d="m 123.88547,119.82285 c -0.0794,0.42333 -0.15875,0.87312 -0.23812,1.29646 -0.15875,0.71437 -0.29104,1.42875 -0.50271,2.11666 -0.21167,0.76729 -0.47625,1.50813 -0.76729,2.24896 -0.0265,0.10583 -0.29104,0.21167 -0.42334,0.18521 -0.21166,-0.0265 -0.39687,-0.13229 -0.29104,-0.44979 0.23813,-0.635 0.42334,-1.29646 0.635,-1.93146 0.3175,-0.92604 0.635,-1.85208 1.00542,-2.75167 0.10583,-0.26458 0.3175,-0.47625 0.47625,-0.71437 0.0794,-0.0265 0.10583,0 0.10583,0 z"
         id="path48"
         style="fill:#ffff00;stroke-width:0.264583" />
      <path
         class="st0"
         d="m 129.62693,126.70201 c 0.0265,-0.47625 0,-0.87312 0.10583,-1.27 0.15875,-0.52916 0.89959,-0.9525 1.69334,-0.5027 0.15875,0.0794 0.42333,0.1852 0.44979,0.29104 0.0529,0.37041 0.15875,0.82021 -0.0265,1.08479 -0.15875,0.26458 -0.635,0.39687 -0.97896,0.47625 -0.37041,0.0794 -0.74083,-0.0265 -1.24354,-0.0794 z"
         id="path50"
         style="fill:#ffff00;stroke-width:0.264583" />
      <path
         class="st0"
         d="m 96.395265,52.698057 c 0.07937,-0.264584 0.105833,-0.582084 0.264583,-0.687917 0.396875,-0.238125 0.846667,-0.529167 1.375834,-0.396875 0.555625,0.15875 0.846666,0.502708 0.767291,0.899583 -0.105833,0.740834 -0.529166,1.164167 -1.190625,1.137709 -0.3175,-0.02646 -0.687916,-0.105834 -0.9525,-0.291042 -0.15875,-0.105833 -0.15875,-0.423333 -0.264583,-0.661458 z"
         id="path52"
         style="fill:#ffff00;stroke-width:0.264583" />
      <path
         class="st0"
         d="m 59.274224,102.5191 c -0.291042,0.0265 -0.555625,0 -0.767292,0.10583 -0.185208,0.10583 -0.291042,0.34396 -0.449792,0.52917 -0.07937,-0.3175 -0.238125,-0.50271 -0.582083,-0.58209 -0.370417,-0.0794 -0.529167,-0.34395 -0.449792,-0.74083 0.05292,-0.37042 0.370417,-0.635 0.740834,-0.71437 0.687916,-0.15875 0.926041,0.34395 1.217083,0.76729 0.105833,0.15875 0.15875,0.34396 0.291042,0.635 z"
         id="path54"
         style="fill:#ffff00;stroke-width:0.264583" />
      <path
         class="st0"
         d="m 169.04985,75.98139 c 0.52916,-0.132292 1.03187,-0.07937 1.19062,-0.582084 0.23813,0.185209 0.44979,0.370417 0.68792,0.502709 0.26458,0.132291 0.47625,0.3175 0.39687,0.635 -0.0794,0.3175 -0.1852,0.635 -0.55562,0.714375 -0.0794,0.02646 -0.13229,0.07937 -0.21167,0.07937 -0.26458,0.02646 -0.52916,0.185208 -0.74083,-0.185209 -0.18521,-0.370416 -0.44979,-0.714375 -0.76729,-1.164166 z"
         id="path56"
         style="fill:#ffff00;stroke-width:0.264583" />
      <path
         class="st0"
         d="m 162.80568,100.00556 c 1.48167,0.34395 2.69875,0.87312 3.36021,2.38125 -1.34938,-0.52917 -2.54,-1.11125 -3.36021,-2.38125 z"
         id="path58"
         style="fill:#ffff00;stroke-width:0.264583" />
      <path
         class="st0"
         d="m 65.597765,78.415556 c -1.402291,-0.264583 -2.619375,-0.79375 -3.33375,-2.248958 0.899584,0.132292 2.275417,0.926042 3.33375,2.248958 z"
         id="path60"
         style="fill:#ffff00;stroke-width:0.264583" />
      <path
         class="st0"
         d="m 118.67318,139.21681 c 1.50813,0.92604 1.69333,2.59291 2.48708,3.94229 -0.9525,-0.37042 -2.14312,-2.54 -2.48708,-3.94229 z"
         id="path62"
         style="fill:#ffff00;stroke-width:0.264583" />
      <path
         class="st0"
         d="m 107.21672,35.34139 c 1.34938,0.9525 2.01084,2.301875 2.51354,3.862917 -0.79375,-0.370417 -1.19062,-1.058333 -1.50812,-1.772708 -0.26458,-0.582084 -0.50271,-1.190625 -0.76729,-1.772709 -0.0529,-0.132291 -0.15875,-0.238125 -0.23813,-0.3175 z"
         id="path64"
         style="fill:#ffff00;stroke-width:0.264583" />
      <path
         class="st0"
         d="m 66.206307,118.65868 c 0.978958,-1.08479 2.143125,-1.74625 3.439583,-2.30187 -0.449791,1.05833 -2.487083,2.43416 -3.439583,2.30187 z"
         id="path66"
         style="fill:#ffff00;stroke-width:0.264583" />
      <path
         class="st0"
         d="m 162.09131,59.762432 c -0.4498,0.820208 -2.54,2.143125 -3.22792,2.2225 0.9525,-1.349375 2.56646,-2.460625 3.22792,-2.2225 z"
         id="path68"
         style="fill:#ffff00;stroke-width:0.264583" />
      <path
         class="st0"
         d="m 133.75443,112.89076 c -1.37583,-0.0794 -2.59292,-0.47625 -3.59833,-1.4552 1.19062,0.5027 2.64583,0.3175 3.59833,1.4552 z"
         id="path70"
         style="fill:#ffff00;stroke-width:0.264583" />
      <path
         class="st0"
         d="m 98.22089,67.012015 c -0.873125,-0.211667 -1.666875,-0.370417 -2.434167,-0.608542 -0.449791,-0.132291 -0.926041,-0.343958 -1.190625,-0.846666 1.349375,0.07937 2.566459,0.449791 3.624792,1.455208 z"
         id="path72"
         style="fill:#ffff00;stroke-width:0.264583" />
      <path
         class="st0"
         d="m 108.96297,46.93014 c -0.34396,0.15875 -0.60854,0.291042 -0.87312,0.370417 -0.13229,0.02646 -0.29104,0.02646 -0.42334,-0.02646 -0.0794,-0.02646 -0.0794,-0.211666 -0.0794,-0.3175 0,-0.15875 0.0265,-0.343958 0.10583,-0.47625 0.0794,-0.132291 0.23813,-0.343958 0.34396,-0.343958 0.23813,0 0.50271,0.105833 0.66146,0.238125 0.18521,0.105833 0.21167,0.370417 0.26458,0.555625 z"
         id="path74"
         style="fill:#ffff00;stroke-width:0.264583" />
      <path
         class="st0"
         d="m 120.18131,132.33764 c -0.34396,0 -0.68792,-0.3175 -0.71438,-0.66146 0,-0.0265 0,-0.0265 0,-0.0529 0.0794,-0.0794 0.15875,-0.23812 0.23813,-0.23812 0.34395,0 0.60854,-0.47625 0.97895,-0.15875 0.10584,0.0794 0.0529,0.37042 0.0265,0.55562 -0.0794,0.26459 -0.10583,0.60855 -0.52916,0.55563 z"
         id="path76"
         style="fill:#ffff00;stroke-width:0.264583" />
      <path
         class="st0"
         d="m 58.983182,114.16076 c -0.582083,-0.3175 -0.820208,-0.8202 -0.926042,-1.40229 -0.02646,-0.13229 0.185209,-0.3175 0.264584,-0.47625 0.132291,0.0794 0.3175,0.13229 0.396875,0.26459 0.3175,0.5027 0.291041,1.03187 0.264583,1.61395 z"
         id="path78"
         style="fill:#ffff00;stroke-width:0.264583" />
      <path
         class="st0"
         d="m 170.18756,66.13889 c -0.66146,0 -0.92605,-0.661458 -0.74084,-1.772708 0.60854,0.185208 0.92604,0.9525 0.74084,1.772708 z"
         id="path80"
         style="fill:#ffff00;stroke-width:0.264583" />
      <path
         class="st0"
         d="M 69.48714,80.664515 C 68.349432,80.10889 67.158807,79.63264 66.259224,78.68014 c 0.02646,-0.05292 0.05292,-0.07937 0.07937,-0.132292 1.084791,0.661458 2.143125,1.322917 3.227916,1.984375 -0.02646,0.05292 -0.05292,0.07937 -0.07937,0.132292 z"
         id="path82"
         style="fill:#ffff00;stroke-width:0.264583" />
      <path
         class="st0"
         d="m 159.0486,97.862431 c 1.05833,0.529167 2.2225,0.926042 2.96333,2.010833 -1.00542,-0.635 -2.03729,-1.243541 -3.04271,-1.878541 0.0265,-0.02646 0.0529,-0.07937 0.0794,-0.132292 z"
         id="path84"
         style="fill:#ffff00;stroke-width:0.264583" />
      <path
         class="st0"
         d="m 162.48818,58.280765 c -0.26458,-0.396875 -0.0794,-0.79375 0.10583,-1.137708 0.10584,-0.185209 0.34396,-0.264584 0.58209,-0.396875 0.0794,0.449791 -0.3175,1.27 -0.68792,1.534583 z"
         id="path86"
         style="fill:#ffff00;stroke-width:0.264583" />
      <path
         class="st0"
         d="m 65.756515,120.35201 c 0.238125,-0.15875 0.343959,0.10584 0.291042,0.29105 -0.07937,0.29104 -0.238125,0.55562 -0.423333,0.8202 -0.07937,0.1323 -0.238125,0.39688 -0.396875,0.1323 -0.07937,-0.10584 -0.02646,-0.39688 0.05292,-0.55563 0.132292,-0.23812 0.3175,-0.44979 0.47625,-0.68792 z"
         id="path88"
         style="fill:#ffff00;stroke-width:0.264583" />
      <path
         class="st0"
         d="m 153.04256,106.93764 c -0.15875,0.3175 -0.34396,0.50271 -0.635,0.42333 -0.26459,-0.0794 -0.50271,-0.23812 -0.68792,-0.42333 -0.13229,-0.13229 0,-0.3175 0.21167,-0.26458 0.34395,0.0529 0.68791,0.15875 1.11125,0.26458 z"
         id="path90"
         style="fill:#ffff00;stroke-width:0.264583" />
      <path
         class="st0"
         d="m 76.78964,71.642223 c -0.529167,0.343958 -0.9525,-0.05292 -1.42875,-0.185208 0.343958,-0.502709 1.005417,-0.423334 1.42875,0.185208 z"
         id="path92"
         style="fill:#ffff00;stroke-width:0.264583" />
      <path
         class="st0"
         d="m 149.41776,56.217015 c -0.3175,0.635 -0.5027,1.296458 -1.11125,1.693333 0.0794,-0.635 0.68792,-1.5875 1.11125,-1.693333 z"
         id="path94"
         style="fill:#ffff00;stroke-width:0.264583" />
      <path
         class="st0"
         d="m 126.9811,121.27806 c 0,-0.3175 0,-0.52917 0,-0.84667 0.3175,0.10583 0.58208,0.18521 0.82021,0.3175 0.0264,0 0,0.21167 -0.0265,0.23812 -0.23813,0.10584 -0.50271,0.18521 -0.79375,0.29105 z"
         id="path96"
         style="fill:#ffff00;stroke-width:0.264583" />
      <path
         class="st0"
         d="m 78.879848,122.38931 c 0.370417,-0.68792 0.687917,-1.24355 1.005417,-1.82563 0.15875,0.47625 -0.370417,1.37583 -1.005417,1.82563 z"
         id="path98"
         style="fill:#ffff00;stroke-width:0.264583" />
      <path
         class="st0"
         d="m 101.42235,57.354723 c 0,0.238125 0,0.423334 0,0.714375 -0.34396,-0.132291 -0.66146,-0.211666 -0.9525,-0.3175 0.18521,-0.502708 0.55562,-0.423333 0.9525,-0.396875 z"
         id="path100"
         style="fill:#ffff00;stroke-width:0.264583" />
      <path
         class="st0"
         d="m 87.558182,139.13743 c 0,-0.13229 0,-0.29104 0.02646,-0.42333 0.105833,-0.37042 0.211667,-0.71438 0.343958,-1.11125 0.185209,0.0529 0.370417,0.13229 0.211667,0.47625 -0.15875,0.34396 -0.3175,0.68791 -0.47625,1.03187 -0.02646,0.0265 -0.07938,0.0265 -0.105833,0.0265 z"
         id="path102"
         style="fill:#ffff00;stroke-width:0.264583" />
      <path
         class="st0"
         d="m 140.58068,40.765348 c -0.13229,0 -0.23812,0 -0.47625,0 0.23813,-0.529166 0.42333,-1.005416 0.66146,-1.561041 0.34396,0.635 -0.44979,1.031875 -0.18521,1.561041 z"
         id="path104"
         style="fill:#ffff00;stroke-width:0.264583" />
    </g>
  </g>
  <style
     type="text/css"
     id="style10">
	.st0{fill:#F3E600;}
</style>
</svg>
