<?xml version="1.0" encoding="UTF-8" standalone="no"?>
<svg
   xmlns:dc="http://purl.org/dc/elements/1.1/"
   xmlns:cc="http://creativecommons.org/ns#"
   xmlns:rdf="http://www.w3.org/1999/02/22-rdf-syntax-ns#"
   xmlns:svg="http://www.w3.org/2000/svg"
   xmlns="http://www.w3.org/2000/svg"
   xmlns:sodipodi="http://sodipodi.sourceforge.net/DTD/sodipodi-0.dtd"
   xmlns:inkscape="http://www.inkscape.org/namespaces/inkscape"
   width="112.37488mm"
   height="39.858192mm"
   viewBox="0 0 112.37488 39.858192"
   version="1.1"
   id="svg8"
   inkscape:version="1.0.1 (3bc2e813f5, 2020-09-07)">
  <defs
     id="defs2" />
  <sodipodi:namedview
     id="base"
     pagecolor="#ffffff"
     bordercolor="#666666"
     borderopacity="1.0"
     inkscape:pageopacity="0.0"
     inkscape:pageshadow="2"
     inkscape:zoom="1.4"
     inkscape:cx="205.47786"
     inkscape:cy="-13.864104"
     inkscape:document-units="mm"
     inkscape:current-layer="layer1"
     inkscape:document-rotation="0"
     showgrid="false"
     fit-margin-top="0"
     fit-margin-left="0"
     fit-margin-right="0"
     fit-margin-bottom="0"
     inkscape:window-width="1920"
     inkscape:window-height="1001"
     inkscape:window-x="2391"
     inkscape:window-y="-9"
     inkscape:window-maximized="1" />
  <metadata
     id="metadata5">
    <rdf:RDF>
      <cc:Work
         rdf:about="">
        <dc:format>image/svg+xml</dc:format>
        <dc:type
           rdf:resource="http://purl.org/dc/dcmitype/StillImage" />
        <dc:title></dc:title>
      </cc:Work>
    </rdf:RDF>
  </metadata>
  <g
     inkscape:label="Ebene 1"
     inkscape:groupmode="layer"
     id="layer1"
     transform="translate(-57.672937,-112.36949)">
    <path
       class="st0"
       d="m 153.7167,113.41982 c -0.89958,1.21708 -2.06375,2.19604 -3.01625,3.33375 -0.9525,1.13771 -1.87854,2.30187 -2.7252,3.51896 -0.26459,0.37041 -0.21167,0.66145 0.1852,0.9525 0.39688,0.29104 0.7673,0.58208 1.03188,1.03187 0.21167,0.37042 0.60854,0.39688 0.97896,0.29104 0.42333,-0.10583 0.82021,-0.26458 1.24354,-0.39687 0.13229,-0.0529 0.34396,-0.10584 0.39687,0.0794 0.0529,0.21166 -0.15875,0.21166 -0.3175,0.21166 -0.23812,0.0265 -0.44979,0.10584 -0.66145,0.26459 0.60854,0.34396 1.1377,0.10583 1.66687,-0.10584 0.76729,-0.29104 1.61396,-0.29104 2.38125,-0.66145 0.55563,-0.26459 1.11125,-0.52917 1.66688,-0.79375 1.08479,-0.52917 2.01083,-1.37584 3.38666,-1.32292 0.82021,0.0265 1.5875,-0.39688 2.35479,-0.71438 0.47625,-0.21166 0.92604,-0.42333 1.42875,-0.52916 1.93146,-0.37042 3.75709,-1.19063 5.66209,-1.64042 0.0529,0 0.10583,-0.0265 0.13229,-0.0529 0.18521,-0.0265 0.47625,-0.13229 0.52916,0.10583 0.0529,0.23813 -0.23812,0.26459 -0.42333,0.3175 -1.34937,0.37042 -2.69875,0.68792 -4.02167,1.13771 -0.92604,0.3175 -1.79916,0.76729 -2.75166,0.9525 -1.5875,0.3175 -2.98979,1.19063 -4.57729,1.50813 -1.13771,0.23812 -2.11667,0.92604 -2.98979,1.69333 -0.10584,0.0794 -0.15875,0.18521 -0.1323,0.29104 0.0265,0.13229 0.15875,0.15875 0.29105,0.18521 0.47625,0.0794 0.92604,0.10583 1.40229,-0.0794 1.21708,-0.47625 2.4077,-0.9525 3.65125,-1.34937 0.84666,-0.26459 1.71979,-0.4498 2.54,-0.79375 0.15875,-0.0794 0.37041,-0.10584 0.42333,0.10583 0.0794,0.23812 -0.13229,0.26458 -0.29104,0.3175 -0.42334,0.13229 -0.82021,0.29104 -1.24354,0.42333 -0.50271,0.15875 -0.97896,0.37042 -1.4023,0.74084 -0.55562,0.44979 -1.32291,0.58208 -1.90499,1.00541 -0.23813,0.18521 -0.52917,0.23813 -0.79375,0.26459 -0.10584,0 -0.23813,0.0265 -0.29105,-0.0265 -0.37041,-0.37042 -0.68791,-0.1323 -1.05833,0.0265 -0.84667,0.3175 -1.69333,0.60854 -2.56646,0.92604 -0.26458,0.10583 -0.52916,0.21166 -0.79375,0.3175 -0.26458,0.13229 -0.39687,0.3175 -0.29104,0.60854 0.13229,0.39687 -0.10583,0.58208 -0.44979,0.68792 -0.58208,0.1852 -1.13771,0.42333 -1.71979,0.60854 -0.37042,0.10583 -0.37042,0.23812 -0.13229,0.50271 0.37041,0.39687 0.8202,0.68791 1.19062,1.11125 0.23813,0.26458 0.66146,0.15875 0.9525,-0.21167 0.10583,-0.10583 0.15875,-0.26458 0.26458,-0.37042 0.15875,-0.15875 0.34396,-0.15875 0.50271,-0.0265 0.13229,0.10584 0.15875,0.29104 0.0529,0.39688 -0.42333,0.44979 -0.0529,0.84666 0.0265,1.27 0.0265,0.18521 0.21166,0.21166 0.37041,0.21166 1.03188,0.10584 2.06375,0.29105 3.12209,0.18521 0.13229,0 0.26458,-0.0265 0.39687,0 1.16417,0.3175 2.35479,0.10584 3.51896,0.23813 0.3175,0.0265 0.635,0.0794 0.89958,0.26458 0.58209,0.44979 1.34938,0.71438 1.79917,1.34938 0.15875,0.23812 0.29104,0.52916 0.15875,0.79375 -0.13229,0.29104 -0.44979,0.26458 -0.71438,0.26458 -0.5027,-0.0265 -1.00541,0 -1.48166,0.18521 -0.42334,0.15875 -0.92604,-0.10584 -1.05834,-0.44979 -0.34395,-1.03188 -1.37583,-1.29646 -2.06374,-1.24355 -0.55563,0.0529 -1.0848,0.0794 -1.45521,-0.44979 -0.13229,-0.18521 -0.39688,-0.15875 -0.60854,-0.21166 -1.4023,-0.18521 -2.83105,-0.0794 -4.23334,-0.29105 -0.76729,-0.10583 -1.05833,0.55563 -1.29646,1.00542 -0.1852,0.34396 0.10584,0.87313 0.42334,1.19063 0.635,0.66145 1.37583,1.19062 2.30187,1.40229 0.21167,0.0529 0.42334,0.13229 0.60854,0.26458 1.0848,0.76729 2.27542,1.19063 3.57188,1.48167 0.71437,0.15875 1.37583,0.47625 1.905,0.97896 0.10583,0.10583 0.26458,0.15875 0.42333,0.26458 -0.635,0.21167 -1.24354,0.47625 -1.85208,0.0529 -0.23813,-0.15875 -0.52917,-0.13229 -0.76729,-0.21167 -0.3175,-0.13229 -0.76729,0.0794 -0.9525,-0.50271 -0.0794,-0.21166 -0.68792,-0.23812 -1.05834,-0.34395 -0.42333,-0.1323 -0.84666,-0.23813 -1.24354,-0.39688 -0.97896,-0.39687 -2.01083,-0.58208 -3.04271,-0.66146 -0.52916,-0.0265 -1.05833,-0.10583 -1.56104,0.18521 -0.21166,0.13229 -0.50271,0.10583 -0.74083,0.10583 -0.26458,0 -0.47625,0.0794 -0.47625,0.39688 0,0.29104 0.15875,0.47625 0.44979,0.52917 0.10583,0.0265 0.21167,0.0265 0.29104,0.0265 0.21167,0.0265 0.42334,0.10583 0.42334,0.34395 0,0.26459 -0.23813,0.3175 -0.42334,0.34396 -0.21166,0.0529 -0.42333,0.0529 -0.635,0.10584 -0.3175,0.0794 -0.71437,0.10583 -0.50271,0.635 0.0529,0.1852 -0.10583,0.21166 -0.23812,0.23812 -0.26458,0.0265 -0.52917,-0.0529 -0.76729,-0.15875 -0.92604,-0.37042 -1.79917,-0.82021 -2.8575,-0.79375 -0.34396,0 -0.47625,0.0794 -0.37042,0.44979 0.0794,0.23813 0.0794,0.50271 -0.0794,0.71438 -0.60855,0.89958 -0.26459,1.66687 0.84666,1.87854 0.82021,0.15875 1.64042,0.23812 2.46063,0.29104 0.15875,0 0.3175,0 0.44979,0.0529 0.21167,0.0794 0.42333,0.18521 0.34396,0.47625 -0.0529,0.23813 -0.18521,0.44979 -0.44979,0.39688 -1.13771,-0.18521 -2.32834,-0.0265 -3.43959,-0.47625 -0.18521,-0.0794 -0.34396,-0.21167 -0.50271,-0.34396 -0.8202,-0.71438 -1.93145,-0.635 -2.61937,0.23812 -0.44979,0.58209 -0.84667,1.16417 -1.29646,1.74625 -0.34396,0.44979 -0.47625,0.44979 -0.92604,0.0529 -0.47625,-0.42333 -1.05833,-0.47625 -1.64042,-0.50271 -0.50271,0 -0.44979,0.42334 -0.52916,0.7673 -0.10584,0.34395 0.15875,0.39687 0.37041,0.47625 0.71438,0.3175 1.45521,1.74625 1.32292,2.51354 -0.13229,0.71437 -1.00542,1.34937 -1.87854,1.37583 -1.32292,0.0265 -2.35479,-0.47625 -3.01625,-1.64042 -0.29104,-0.52916 -0.42334,-0.55562 -0.9525,-0.21166 -0.15875,0.10583 -0.29104,0.13229 -0.47625,0.15875 -0.39688,0.0529 -0.79375,-0.0265 -1.16417,0.21166 -0.23812,0.1323 -0.52917,-0.0529 -0.74083,-0.21166 -0.74084,-0.50271 -1.61396,-0.71438 -2.43417,-1.05834 -0.29104,-0.13229 -0.635,-0.10583 -0.92604,0.15875 -0.23813,0.23813 -0.52917,0.39688 -0.82021,0.58209 -0.15875,0.10583 -0.29104,0.21166 -0.39687,0.37041 -0.3175,0.55563 -0.23813,0.7673 0.39687,0.79375 0.42333,0.0265 0.71438,0.18521 0.84667,0.58209 0.15875,0.47625 -0.0529,0.84666 -0.47625,0.9525 -0.58209,0.13229 -1.08479,-0.13229 -1.08479,-0.66146 0,-0.58208 -0.26459,-0.79375 -0.82021,-0.71438 -0.21167,0.0265 -0.39688,0 -0.60854,0 -0.37042,0 -0.79375,-0.0265 -0.42334,0.55563 0.0529,0.0794 0.0265,0.15875 -0.0529,0.23812 -0.0794,0.0794 -0.18521,0.0794 -0.23813,0 -0.68792,-0.8202 -1.77271,-0.52916 -2.59292,-0.92604 -0.34395,-0.15875 -0.68791,-0.34396 -1.03187,-0.50271 -0.635,-0.3175 -0.89958,-0.29104 -1.40229,0.18521 -0.26459,0.23813 -0.55563,0.37042 -0.89959,0.42334 -0.26458,0.0265 -0.52916,0.10583 -0.76729,0.23812 -0.21166,0.10583 -0.37041,0.15875 -0.58208,-0.0265 -0.21167,-0.18521 -0.21167,-0.37042 -0.15875,-0.58208 0.0529,-0.29104 0.26458,-0.44979 0.42333,-0.66146 0.21167,-0.26458 0.13229,-0.47625 -0.21166,-0.52917 -0.18521,-0.0265 -0.34396,0.0265 -0.52917,0.10584 -0.42333,0.1852 -0.84667,0.34395 -1.27,0.44979 -0.71438,0.18521 -1.16417,-0.0529 -1.40229,-0.74084 -0.13229,-0.34395 -0.42334,-0.55562 -0.66146,-0.79375 -0.15875,-0.13229 -0.34396,-0.10583 -0.42333,0.0794 -0.26459,0.58209 -0.74084,0.47625 -1.21709,0.34396 -0.3175,-0.0794 -0.635,-0.21166 -0.87312,-0.47625 -0.18521,-0.18521 -0.42334,-0.21166 -0.58209,-0.0265 -0.21166,0.23813 0.0794,0.29104 0.21167,0.39688 0.0529,0.0265 0.13229,0.10583 0.13229,0.13229 -0.0794,0.39687 -0.37041,0.60854 -0.635,0.87312 -0.13229,0.13229 -0.34396,0.18521 -0.50271,0.0265 -0.42333,-0.55562 -0.89958,-0.34395 -1.32291,-0.0265 -0.23813,0.15875 -0.42334,0.15875 -0.55563,-0.0794 -0.37041,-0.635 -0.92604,-0.97896 -1.64041,-1.13771 -0.29105,-0.0794 -0.58209,-0.26458 -0.87313,-0.39687 -0.18521,-0.0794 -0.39687,-0.21167 -0.52917,0 -0.10583,0.18521 0.0529,0.37042 0.26459,0.47625 0.42333,0.21167 0.79375,0.52917 1.19062,0.74083 0.71438,0.37042 1.05834,1.19063 1.85209,1.42875 0.13229,0.0529 0.26458,0.21167 0.37041,0.34396 0.15875,0.18521 0.18521,0.42333 0.0529,0.60854 -0.13229,0.21167 -0.37042,0.18521 -0.58208,0.13229 -0.635,-0.21166 -1.27,-0.37041 -1.87855,-0.55562 -0.87312,-0.29104 -1.64041,-0.79375 -1.85208,-1.82563 -0.0265,-0.1852 -0.10583,-0.3175 -0.26458,-0.42333 -0.68792,-0.52917 -1.50813,-0.89958 -2.301878,-1.21708 -0.42333,-0.15875 -0.84666,-0.18521 -1.16416,0.15875 -0.58209,0.635 -1.45521,0.82021 -2.14313,1.27 -0.92604,0.60854 -1.95792,1.11125 -2.75167,1.93146 -0.21166,0.21166 -0.42333,0.1852 -0.58208,-0.0794 -0.13229,-0.21167 -0.3175,-0.29105 -0.52917,-0.34396 -0.1852,-0.0529 -0.39687,0.0265 -0.37041,0.21166 0,0.42334 -0.21167,0.50271 -0.58209,0.47625 -0.1852,-0.0265 -0.3175,0.15875 -0.39687,0.34396 -0.21167,0.44979 -0.55563,0.55563 -1.00542,0.3175 -0.34396,-0.18521 -0.74083,-0.21166 -1.11125,-0.23812 -0.68791,-0.0529 -1.37583,-0.15875 -2.03729,-0.3175 -0.58208,-0.13229 -1.11125,-0.0529 -1.64042,0.15875 -0.60854,0.23812 -0.76729,0.52916 -0.66145,1.19062 0.0529,0.23813 0.13229,0.47625 0.1852,0.74083 0.0794,0.60855 -0.34395,0.9525 -0.9525,0.79375 -0.21166,-0.0529 -0.5027,-0.37041 -0.66145,-0.0529 -0.1323,0.26458 0.26458,0.3175 0.44979,0.44979 0.42333,0.34396 0.89958,0.66146 1.24354,1.08479 0.15875,0.18521 0.37042,0.42333 0.10583,0.66146 -0.23812,0.21167 -0.44979,0.0794 -0.68791,-0.0794 -0.68792,-0.47625 -1.4023,-0.92604 -1.74625,-1.74625 -0.1323,-0.3175 -2.16959,-0.74083 -2.51355,-0.58208 -0.76729,0.39688 -0.84666,1.21708 -0.1852,1.79917 0.34395,0.3175 0.3175,0.60854 -0.10584,0.82021 -0.44979,0.23812 -1.08479,0.13229 -1.42875,-0.26459 -0.15875,-0.18521 -0.29104,-0.37041 -0.42333,-0.55562 -0.18521,-0.26459 -0.39688,-0.55563 -0.71438,-0.60854 -0.635,-0.1323 -1.1377,-0.47625 -1.64041,-0.87313 -0.39688,-0.3175 -0.82021,-0.44979 -1.21709,0.0529 -0.13229,0.18521 -0.29104,0.15875 -0.37041,-0.0529 -0.15875,-0.34396 -0.42334,-0.37042 -0.76729,-0.34396 -0.873129,0.0794 -1.666879,-0.37041 -2.037296,-1.16416 -0.211666,-0.44979 -0.502708,-0.68792 -1.005416,-0.71438 -0.370417,-0.0265 -0.714375,-0.0794 -0.687917,-0.60854 0,-0.18521 -0.185208,-0.26458 -0.343958,-0.3175 -1.031875,-0.3175 -2.010834,-0.29104 -2.883958,0.47625 -0.423334,0.37042 -0.926042,0.47625 -1.455209,0.39688 -0.449791,-0.0529 -0.899583,-0.18521 -1.296458,-0.39688 -0.370417,-0.18521 -0.740833,-0.26458 -1.11125,-0.18521 -1.11125,0.26459 -2.275417,0.26459 -3.386667,0.60854 -0.343958,0.10584 -0.740833,0.0794 -1.11125,0.0794 -0.15875,0 -0.343958,-0.0265 -0.370416,-0.26458 0,-0.21167 0.132291,-0.29104 0.291041,-0.34396 0.02646,0 0.07937,-0.0265 0.105834,-0.0265 1.508125,0.0794 2.672291,-0.8202 3.96875,-1.34937 0.873125,-0.34396 1.666875,-0.84667 2.513541,-1.27 0.396875,-0.18521 0.502709,-0.44979 0.3175,-0.84667 -0.132291,-0.3175 -0.291041,-0.66146 -0.3175,-1.00541 -0.05292,-0.42334 -0.264583,-0.52917 -0.635,-0.55563 -0.264583,-0.0265 -0.555625,0.0265 -0.661458,-0.3175 -0.07937,-0.26458 0.05292,-0.44979 0.238125,-0.635 0.238125,-0.23812 0.47625,-0.18521 0.740833,-0.10583 0.132292,0.0265 0.264584,0.34396 0.370417,0.0265 0.05292,-0.18521 -0.105833,-0.47625 -0.3175,-0.44979 -0.714375,0.10583 -1.455208,-0.23813 -2.143125,0.0529 -0.15875,0.0794 -0.3175,0.10583 -0.47625,0.15875 -0.15875,0.0265 -0.370417,0.0794 -0.47625,-0.0794 -0.105833,-0.23813 0.185208,-0.21167 0.264583,-0.3175 0.211667,-0.3175 0.502709,-0.26459 0.79375,-0.26459 0.449792,0 0.926042,0 1.322917,-0.21166 0.291042,-0.15875 0.370417,-0.37042 0.05292,-0.55563 -0.343959,-0.21167 -0.449792,-0.42333 -0.291042,-0.82021 0.15875,-0.39687 -0.396875,-0.26458 -0.502708,-0.55562 0.211666,-0.10584 0.449791,-0.21167 0.423333,-0.52917 0,-0.29104 0.291042,-0.3175 0.47625,-0.37042 0.529167,-0.1852 0.846667,-0.47625 0.9525,-1.08479 0.105833,-0.66146 0.185208,-1.29646 0.211667,-1.95791 0.02646,-0.3175 -0.15875,-0.71438 0.264583,-0.92605 0.07937,-0.0265 0.05292,-0.23812 0.05292,-0.37041 0,-0.60854 -0.449792,-1.03188 -0.687917,-1.53459 -0.02646,-0.0265 -0.07937,-0.0794 -0.132292,-0.0794 -0.343958,-0.0529 -0.79375,0 -0.291041,-0.55562 0.105833,-0.13229 -0.105834,-0.21167 -0.264584,-0.13229 -0.132291,0.0794 -0.291041,0.10583 -0.396875,-0.0529 -0.07937,-0.15875 0.02646,-0.26459 0.132292,-0.34396 0.3175,-0.26458 0.291042,-0.55563 0.07937,-0.84667 -0.07937,-0.13229 -0.185208,-0.26458 -0.132292,-0.42333 0.211667,-0.635 -0.185208,-0.87313 -0.687916,-1.05833 -0.05292,-0.0265 -0.105834,-0.0794 -0.211667,-0.1323 0.343958,-0.15875 0.661458,-0.26458 0.926042,-0.5027 0.3175,-0.29105 0.555625,-0.60855 0.608541,-1.05834 0.132292,-0.79375 0.608542,-1.32291 1.27,-1.74625 0.47625,-0.29104 0.740834,-0.71437 0.820209,-1.27 0.05292,-0.39687 0.264583,-0.68791 0.661458,-0.89958 1.349375,-0.71438 2.69875,-0.74083 4.074583,-0.0794 0.47625,0.23812 0.978958,0.42333 1.375833,0.82021 0.343959,0.3175 0.740834,0.23812 1.05833,-0.0265 0.47625,-0.42334 1.05834,-0.39688 1.61396,-0.47625 0.21167,-0.0265 0.42333,0.0265 0.52917,0.23812 0.10583,0.21167 0.0265,0.42334 -0.10584,0.55563 -0.23812,0.21166 -0.15875,0.39687 0,0.60854 0.26459,0.37042 0.60855,0.66146 0.9525,0.97896 0.21167,0.21166 0.47625,0.23812 0.79375,0.10583 0.89959,-0.37042 1.7198,-0.84667 2.43417,-1.50812 0.37042,-0.34396 0.68792,-0.29105 1.03188,0.10583 0.39687,0.47625 0.66145,0.47625 1.00541,-0.0529 0.0794,-0.13229 0.18521,-0.29104 0.21167,-0.44979 0.15875,-0.9525 0.76729,-1.66688 1.21708,-2.48709 0.52917,-0.97895 0.97896,-1.98437 1.45521,-2.96333 0.0794,-0.18521 0.0794,-0.42333 0.10583,-0.635 0.0265,-0.34396 0.21167,-0.60854 0.55563,-0.71437 0.23812,-0.0794 0.42333,0.0794 0.55562,0.26458 0.21167,0.29104 0.15875,0.60854 -0.0264,0.84667 -0.21167,0.29104 -0.42334,0.55562 -0.4498,0.9525 -0.0265,0.23812 -0.0265,0.5027 -0.0265,0.74083 0,0.71437 -0.1323,1.42875 -0.26459,2.14312 -0.0265,0.0794 -0.0265,0.15875 -0.0265,0.23813 0.0265,0.37042 -0.10583,0.87312 0.23813,1.08479 0.3175,0.18521 0.55562,-0.29104 0.82021,-0.47625 0.34396,-0.23812 0.66146,-0.39687 1.00541,0.0265 0.18521,0.21167 0.37042,0.10583 0.52917,-0.0529 0.47625,-0.55562 0.9525,-1.08479 1.13771,-1.82562 0.21167,-0.82021 0.79375,-1.42875 1.16417,-2.16959 0.0529,-0.10583 0.15875,-0.1852 0.29104,-0.13229 0.15875,0.0529 0.15875,0.21167 0.15875,0.34396 -0.0265,0.37042 -0.26459,0.60854 -0.47625,0.87313 -0.76729,1.00541 -0.47625,2.96333 0.52916,3.70416 0.47625,0.34396 0.9525,0.26459 1.34938,-0.21166 0.15875,-0.21167 0.34396,-0.42334 0.60854,-0.50271 0.0794,-0.0265 0.18521,-0.0265 0.23813,0.0265 0.0529,0.0794 0,0.15875 -0.0794,0.21166 -0.15875,0.13229 -0.3175,0.23813 -0.44979,0.37042 -0.0794,0.0794 -0.18521,0.18521 -0.10583,0.3175 0.0529,0.10583 0.15875,0.15875 0.29104,0.15875 0.23812,-0.0265 0.47625,0 0.66146,-0.18521 0.66145,-0.635 1.27,-1.29646 1.71979,-2.11667 0.34396,-0.66145 0.68791,-1.32291 1.27,-1.79916 0.0794,-0.0794 0.15875,-0.18521 0.29104,-0.13229 0.18521,0.0794 0,0.1852 0,0.29104 0.0529,0.635 -0.47625,0.97896 -0.79375,1.40229 -0.44979,0.58208 -0.635,1.27 -0.79375,1.95792 -0.18521,0.8202 0.55562,1.56104 1.37583,1.42875 0.58209,-0.10584 1.13771,-0.0529 1.71979,-0.0529 0.87313,0.0265 1.53459,-0.3175 2.01084,-1.03188 0.0529,-0.10583 0.15875,-0.18521 0.23812,-0.26458 0.343958,-0.3175 0.687918,-0.23813 0.899588,0.18521 0.26458,0.55562 0.60854,0.635 1.11125,0.29104 0.21166,-0.13229 0.39687,-0.3175 0.60854,-0.47625 -0.13229,0.55562 -0.0794,0.66146 0.47625,0.60854 0.76729,-0.0529 1.53458,-0.23813 2.30187,-0.26458 0.47625,-0.0265 0.87313,-0.23813 1.16417,-0.635 0.10583,-0.1323 0.23812,-0.23813 0.34396,-0.37042 0.13229,-0.10583 0.3175,-0.29104 0.47625,-0.10583 0.15875,0.1852 -0.0794,0.23812 -0.18521,0.34395 -0.15875,0.15875 -0.18521,0.34396 -0.13229,0.50271 0.0794,0.21167 0.29104,0.15875 0.44979,0.13229 0.9525,-0.15875 1.87854,-0.29104 2.67229,-1.03187 0.60854,-0.58208 1.21708,-1.13771 1.85208,-1.69333 0.55563,-0.4498 0.97896,-1.05834 1.4023,-1.64042 0.66145,-0.87313 1.29645,-1.77271 1.95791,-2.67229 0.0529,-0.0794 0.10584,-0.13229 0.18521,-0.18521 0.0794,-0.0529 0.15875,-0.0794 0.23813,-0.0265 0.0794,0.0529 0.0794,0.15875 0.0265,0.23812 -0.0265,0.0794 -0.0794,0.15875 -0.13229,0.21167 -0.76729,0.68792 -1.16416,1.66688 -1.95791,2.35479 -0.3175,0.26459 -0.52917,0.66146 -0.3175,1.16417 0.13229,0.26458 0.26458,0.34396 0.5027,0.21167 0.26459,-0.15875 0.47625,-0.0794 0.71438,0 0.84667,0.26458 1.42875,-0.10584 1.87854,-0.89959 0.39688,-0.74083 0.71438,-1.48166 0.79375,-2.30187 0.0265,-0.26459 0.15875,-0.44979 0.44979,-0.42334 0.29104,0.0529 0.34396,0.29105 0.3175,0.50271 -0.15875,0.89959 -0.0265,1.77271 0.0265,2.67229 0.0265,0.3175 -0.18521,0.55563 -0.29104,0.84667 -0.15875,0.52917 -0.39688,1.03188 -0.60854,1.56104 -0.0529,0.13229 -0.15875,0.26459 -0.26459,0.37042 -0.1852,0.18521 -0.47625,0.3175 -0.68791,0.21167 -0.21167,-0.10584 -0.0794,-0.39688 -0.0529,-0.60855 0.0529,-0.39687 0.15875,-0.79375 0.23813,-1.19062 0.0529,-0.34396 -0.10584,-0.47625 -0.42334,-0.34396 -0.47625,0.18521 -0.89958,0.47625 -1.24354,0.82021 -0.15875,0.15875 -0.29104,0.34396 -0.42333,0.50271 -0.21167,0.23812 -0.55563,0.47625 -0.55563,0.71437 0,0.23813 0.47625,0.3175 0.68792,0.50271 0.44979,0.39688 0.42333,0.97896 0.47625,1.50813 0.0265,0.1852 -0.0529,0.39687 -0.0529,0.60854 0,0.21166 -0.0265,0.42333 0.23813,0.50271 0.29104,0.0794 0.44979,-0.0529 0.58208,-0.29105 0.0529,-0.10583 0.0794,-0.26458 0.10583,-0.39687 0.0265,-0.15875 0.0794,-0.3175 0.26459,-0.3175 0.21166,0.0265 0.15875,0.21167 0.18521,0.34396 0,0.26458 -0.0794,0.52916 0,0.79375 0.13229,0.42333 0.39687,0.55562 0.74083,0.29104 0.82021,-0.60854 1.61396,-1.21708 2.30187,-1.95792 0.4498,-0.47625 0.89959,-0.9525 1.34938,-1.42875 0.18521,-0.21166 0.44979,-0.39687 0.68792,-0.10583 0.21166,0.26458 -0.0529,0.44979 -0.26459,0.60854 -0.0529,0.0529 -0.10583,0.0794 -0.15875,0.13229 -0.21166,0.18521 -0.635,0.26459 -0.50271,0.58209 0.10584,0.29104 0.52917,0.26458 0.82021,0.34395 0.18521,0.0529 0.39688,-0.0794 0.34396,-0.3175 -0.13229,-0.79375 0.34396,-1.27 0.92604,-1.5875 0.68792,-0.37041 1.13771,-0.9525 1.71979,-1.42875 0.0794,-0.0529 0.15875,-0.13229 0.23813,-0.1852 0.18521,-0.10584 0.39687,-0.3175 0.58208,-0.10584 0.15875,0.21167 -0.0794,0.37042 -0.21166,0.50271 -0.34396,0.34396 -0.71438,0.68792 -1.05834,1.00542 -0.18521,0.18521 -0.29104,0.39687 -0.15875,0.635 0.13229,0.21166 0.39688,0.15875 0.60854,0.10583 0.26459,-0.0529 0.4498,-0.21167 0.635,-0.39687 0.1323,-0.15875 0.29105,-0.29105 0.47625,-0.37042 0.42334,-0.13229 0.52917,-0.39688 0.52917,-0.84667 0.0265,-0.82021 0.47625,-1.48166 1.13771,-1.93146 0.55562,-0.34395 1.32292,-0.13229 1.87854,0.42334 0.21167,0.23812 0.42333,0.47625 0.60854,0.74083 0.18521,0.23813 0.39688,0.29104 0.66146,0.23813 0.3175,-0.0529 0.23813,-0.3175 0.23813,-0.52917 0,-0.21167 0,-0.44979 -0.0265,-0.66146 -0.0794,-0.87312 0.60854,-1.34937 1.19062,-1.53458 0.42334,-0.13229 0.74084,0.21166 1.08479,0.44979 0.21167,0.13229 0.37042,0.34396 0.55563,0.50271 0.18521,0.15875 0.15875,0.3175 0.0794,0.50271 -0.0529,0.13229 -0.1852,0.26458 0,0.39687 0.21167,0.15875 0.26459,-0.0794 0.34396,-0.15875 0.39688,-0.47625 0.9525,-0.60854 1.53459,-0.635 0.8202,-0.0265 1.29645,0.42333 1.32291,1.24354 0.0265,0.82021 -0.13229,1.05834 -0.9525,1.32292 -0.13229,0.0529 -0.26458,0.13229 -0.37041,0.23812 -0.26459,0.29105 -0.55563,0.4498 -0.97896,0.47625 -0.23813,0 -0.44979,0.0794 -0.47625,0.34396 -0.0265,0.26459 0.0794,0.42334 0.3175,0.60854 0.87312,0.68792 1.64041,0.1323 2.38125,-0.15875 0.3175,-0.10583 0.60854,-0.42333 0.29104,-0.87312 -0.21167,-0.3175 -0.0529,-0.66146 0.37042,-0.84667 0.34395,-0.15875 0.71437,-0.18521 1.03187,-0.39687 0.0794,-0.0529 0.21167,-0.0529 0.26458,0.0265 0.1323,0.15875 0.0794,0.37041 0,0.52916 -0.15875,0.29105 -0.26458,0.58209 -0.0265,0.89959 0.3175,0.44979 0.68791,0.44979 0.97895,0 0.34396,-0.55563 0.79375,-1.05834 0.60855,-1.79917 -0.0265,-0.0794 0,-0.21167 0.0794,-0.29104 0.68792,-0.71438 0.9525,-1.61396 1.19063,-2.56646 0.0794,-0.37042 0.23812,-0.74083 0.44979,-1.05833 0.21166,-0.3175 0.42333,-0.29104 0.58208,0.0529 0.10583,0.26458 0.23813,0.50271 0.55563,0.50271 0.3175,0 0.39687,-0.29105 0.5027,-0.50271 0.52917,-1.16417 1.05834,-2.32834 1.5875,-3.4925 0.0265,-0.0529 0.0529,-0.13229 0.10584,-0.18521 0.13229,-0.18521 0.3175,-0.37042 0.52916,-0.23813 0.21167,0.1323 0.1323,0.39688 0,0.55563 -0.74083,0.92604 -1.11125,2.03729 -1.66687,3.04271 -0.76729,1.37583 -1.34938,2.8575 -1.5875,4.445 -0.10583,0.68791 0.10583,1.05833 0.79375,1.42875 0.52917,0.29104 0.89958,0.23812 1.42875,-0.23813 0.34396,-0.3175 0.71437,-0.60854 0.9525,-1.03187 0.29104,-0.52917 0.26458,-1.08479 -0.13229,-1.56104 -0.29104,-0.37042 -0.39688,-0.84667 -0.60854,-1.27 -0.1323,-0.23813 -0.18521,-0.58209 0.13229,-0.68792 0.34396,-0.13229 0.635,0.0529 0.76729,0.39687 0.18521,0.47625 0.42333,0.89959 0.84667,1.21709 0.66145,0.50271 0.97895,0.52916 1.56104,-0.0794 0.3175,-0.34396 0.68791,-0.66146 1.05833,-0.92604 0.0794,-0.0529 0.13229,-0.1323 0.21167,-0.15875 1.24354,-0.37042 1.79916,-1.56105 2.69875,-2.32834 0.42333,-0.34396 0.74083,-0.82021 1.11125,-1.24354 0.0794,-0.29104 0.34396,-0.44979 0.68791,-0.55562 z m -2.54,16.43062 c 0.18521,0 0.29105,0.0529 0.37042,-0.0529 0.0794,-0.13229 -0.0265,-0.21167 -0.0794,-0.3175 -0.26459,-0.3175 -0.60855,-0.44979 -1.03188,-0.44979 -0.3175,0 -0.68792,-0.0265 -0.82021,-0.37042 -0.15875,-0.50271 -0.635,-0.66146 -0.97896,-0.9525 -0.23812,-0.21166 -0.5027,-0.0794 -0.71437,0.13229 -0.18521,0.15875 -0.47625,0.34396 -0.39688,0.58209 0.0794,0.26458 0.39688,0.23812 0.66146,0.26458 0.3175,0.0529 0.66146,0.0265 0.89959,0.26458 0.58208,0.58209 1.4552,0.58209 2.0902,0.89959 z m -35.40125,16.40417 c 0.50271,-0.29104 0.97896,-0.55563 1.48167,-0.84667 0.23813,-0.13229 0.29104,-0.37041 0.21167,-0.60854 -0.0529,-0.21167 -0.10584,-0.44979 -0.34396,-0.50271 -0.26458,-0.0529 -0.42333,0.13229 -0.58208,0.3175 -0.42334,0.44979 -0.60855,1.00542 -0.7673,1.64042 z M 83.496292,121.22503 c -0.0265,0.21166 0,0.39687 0.21166,0.5027 0.18521,0.0794 0.3175,0 0.37042,-0.15875 0.23813,-0.58208 0.47625,-1.1377 0.55563,-1.74625 0.0264,-0.13229 -0.0529,-0.26458 -0.18521,-0.3175 -0.18521,-0.0794 -0.23813,0.0794 -0.3175,0.18521 -0.34396,0.44979 -0.55563,0.97896 -0.635,1.53459 z m 29.818538,-1.27 c -0.66146,0.34395 -1.32292,0.60854 -1.82563,1.16416 -0.10583,0.10584 -0.10583,0.26459 0.10584,0.29104 0.37041,0.0265 0.74083,0.0529 1.11125,-0.15875 0.55562,-0.29104 0.26458,-0.92604 0.60854,-1.29645 z"
       id="path12"
       style="fill:#ffff00;stroke-width:0.264583" />
  </g>
  <style
     type="text/css"
     id="style10">
	.st0{fill:#F3E600;}
</style>
</svg>
