<?xml version="1.0" encoding="utf-8"?>
<!-- Generator: Adobe Illustrator 25.1.0, SVG Export Plug-In . SVG Version: 6.00 Build 0)  -->
<svg version="1.1" id="Ebene_1" xmlns="http://www.w3.org/2000/svg" xmlns:xlink="http://www.w3.org/1999/xlink" x="0px" y="0px"
	 viewBox="0 0 595.3 841.9" style="enable-background:new 0 0 595.3 841.9;" xml:space="preserve">
<style type="text/css">
	.st0{fill:#F3E600;}
</style>
<path class="st0" d="M327.5,520.4c-0.9-4-3.9-5.2-7.5-5.8c-4.2-0.7-7.8-2.7-11.3-4.9c-1.6-1-3.3-1.5-5.1-1.9c-1.2-0.2-2.3,0-3.3,0.7
	c-2.9,2.1-6.2,2.9-9.6,2.6c-1.2-0.1-2.3,0.1-3.4,0.3c-3.8,0.8-7.3,0.4-10.7-1.5c-3.2-1.8-6.4-3.4-10-4.1c-3-0.6-6.3,1-6.6,4.7
	c-0.2,2.2-0.2,4.3-2,5.9c-1.1,1-2.3,1.5-3.7,0.9c-1.8-0.7-3-0.1-4,1.4c-1.2,1.8-2.4,3.6-3.9,5.1c-0.7,0.8-1.4,1.3-2.1-0.1
	c-0.3-0.6-0.9-1-1.3-1.5c-0.8-1-1-2.1-0.5-3.4c0.8-2,1.6-4,2.9-5.7c1.6-2.2,2.5-4.9,3.4-7.5c0.7-2.3-0.4-4.8-2.7-5.7
	c-1.6-0.6-2.2-1.9-2.8-3.2c-0.5-1.2-1.3-2-2.5-2.5c-1.4-0.6-2.8-1.4-4.2-2c-2.7-1.2-5.6-1.2-8.3-0.2c-6,2.1-12.2,3.7-17.8,6.8
	c-3.5,1.9-6.8,4.1-9.5,7.1c-1.6,1.9-4.1,2.5-5.8,4.3c-2,2-4.6,3.4-6.5,5.6c-0.6,0.7-1.6,1.2-2.6,1.4c-1.3,0.3-2.5,1-3.4,2
	c-2.6,3.1-6,4.8-10,5.6c-2.2,0.4-4,1.6-5.4,3.2c-2.8,3.2-6.4,5.1-10.3,6.6c1.9-2,3.2-4.3,4.7-6.6c0.5-0.7,1.2-1,2-1.3
	c3-1.1,5-3,5.4-6.3c0.7-5.5,4.4-8.1,9.8-6.9c1.7,0.4,3.4,0.1,4.9-0.6c4.5-1.9,8.9-4.1,12.1-8c0.2-0.2,0.4-0.4,0.6-0.5
	c5.9-3.5,8.2-9.5,10.5-15.5c0.8-2.2,2.1-4.3,3.2-6.5c1.2-2.3,1.3-4.5,0.5-7.1c-1.4-4.5-3.6-8.5-5.4-12.7c-0.3-0.8-0.5-1.7-0.8-2.5
	c-2.1-4.8-6-7.7-10.5-10.1c-0.9-0.5-1.9-0.5-3-0.3c-4.4,0.8-7.9-2-7.6-6.4c0.3-4.3-1.9-6.7-5.2-8.7c-1.1-0.7-2.3-1.4-3.2-2.4
	c-2.1-2.3-4.9-2.3-7.5-2.6c-2-0.2-4,0.1-6.1-0.1c-1.6-0.1-2.6,0.5-3.2,1.9c-0.7,1.5,0.2,2.4,1.1,3.3c1.3,1.2,2.3,2.4,1.4,4.4
	c-0.9,2-4.1,3.4-6.4,2.8c-2.1-0.5-2.7-1.9-2.9-4.6c-0.2-4-1.9-7.4-6.6-6.5c-2.3,0.4-4.6,0.6-6.9,0.1c-1.9-0.4-3.9-0.3-5.8-0.1
	c-1.4,0.1-2.6-0.2-4-0.6c1.3-1.3,2.5-2.2,4.2-1c1.8,1.2,3.8,0.6,5.6,0.3c2.2-0.3,4.5-0.8,6.7-0.9c2.1-0.2,4-0.9,5.8-2.1
	c1.4-0.9,3.3-1.5,4.9-1.2c6,1.4,12.1,1.4,18.2,1.4c1.7,0,3.4,0.5,4.9,1c4.5,1.4,5.1-0.1,7.3-4.1c1.2-2.2,1.8-4.7,2.3-7.3
	c0.4-2,1.8-3.3,3.6-4.4c2.6-1.6,5.5-2.8,7.8-4.9c2.4-2.3,3.7-5.2,4.3-8.4c0.2-1-0.5-1.7-1.3-2c-0.7-0.3-1.4-0.4-1.9-1.1
	c0.4-0.6,0.8-0.1,1.2,0c2.9,0.6,4.8-0.5,5.4-3.5c0.3-1.3,0.6-2.6,1.4-3.7c0.6-0.8,0.4-1.5-0.5-2c-3.4-1.7-6.1-4.7-10.2-5.1
	c-0.4,0-1-0.3-1.3-0.6c-4.3-4.9-10.4-7.6-15.4-11.5c-2.4-1.9-4.6-4-6.6-6.2c-1.6-1.8-3.4-2.7-5.6-2.8c-2-0.1-2.8-1.5-2.7-2.9
	c0.5-3.6-2.2-4.9-4.4-6c-2.9-1.4-4-4.2-6.2-6.1c-0.4-0.4-0.4-1-0.2-1.6c1.2,0.3,2.2,0.8,2.6,2c0.1,0.4,0.4,1,0.8,1.1
	c3.6,1.4,4.8,5.5,8,7.2c0.6,0.3,1.2,0.9,1.9,1.1c0.9,0.2,1.9,0.8,2.2,1.6c1,2.4,3.2,3.7,4.7,5.7c0.4,0.6,1,1.2,1.7,1.4
	c3,1,5,3.3,7.1,5.5c3,3.3,6.9,5.3,10.5,7.8c1.9,1.3,4.4,1.6,6.7,2c1.2,0.2,1.5,1,2,1.7c0.3,0.5-0.4,1.4,0.6,1.8
	c1.8,0.8,3.2,2.3,5.2,2.5c0.6,0.1,1.2-0.2,1.7-0.6c1.4-1.2,2.6-2.5,3.6-4c1.4-2,2.6-4,4.7-5.4c2.7-1.7,3.1-4.6,3-7.5
	c0-0.7-0.4-1.1-0.9-1.5c-3.4-3-4.6-6.6-3.4-11c0.6-2.2,2.5-2.8,4.2-1.3c1.1,0.9,2,2,3.3,2.6c0.9,0.4,0.9,1,0.6,1.8
	c-1.2,3.8,0.7,7.8,4.4,9.1c2.2,0.8,6.9-1.9,7.5-5.5c0.6-3.5-0.3-6.8-0.9-10.1c-0.1-0.9-1-1.3-1.4-1.9c-2.1-3.2-4.4-6.3-6.2-9.8
	c-0.5-1.1-1.5-2-2.8-2.7c-2.8-1.5-4.7-3.8-4.9-7.3c-0.2-3.8-1.7-7.1-4.3-10.1c-1.4-1.7-2.2-3.9-2.9-6c-0.4-1.1-0.9-2.2-1.7-2.9
	c-3.1-2.9-5.8-6.2-8.5-9.5c-1.8-2.1-3.8-1.8-5.1,0.7c-2.5,4.8-6.2,8.5-11.8,8.2c-5.4-0.3-9.9-2.4-12.9-7.8c-3-5.5-0.5-14.1,4.2-17.1
	c2.7-1.7,5.7-2.7,9-2.4c3.1,0.3,5-1.6,4.2-4.6c-1.3-5-2.5-10.1-4.8-14.8c-0.3-0.7-0.3-1.4-0.5-2.1c-0.7-2.3-1.6-4.5-3.8-5.9
	c-1.4-0.9-2.1-2.5-2.7-4.2c-0.5-1.4-0.9-2.8-1.7-4c-0.1-0.1-0.1-0.2-0.2-0.4c-1.1-2.3-0.7-5.4,0.8-6.1c1.4-0.6,5,0.7,5.7,3.4
	c0.3,1.2,0.9,2.2,1.6,3.1c1.6,2.2,2,4.8,3,7.2c1.9,4.5,4.5,8.5,7.8,12.1c4.7,5,7.6,11.2,11.2,16.9c0.5,0.8,0.6,2.1,2,2
	c0.4,0,0.5,0.2,0.3,0.5c-0.9,1.5,0.4,2.5,0.9,3.5c1.4,2.7,2.5,5.5,3.2,8.5c0.9,3.9,0.7,7.5,0.1,11.3c0,0.3-0.1,0.6,0,0.8
	c0.9,1.4,1.5,2.8,0.8,4.6c-0.3,0.8,1.2,1.1,1.6,1.9c2.2,3.8,5.3,7,7.8,10.5c0.3,0.5,0.8,0.7,1.3,0.9c3,1.3,4.9,3.4,5.5,6.7
	c0.5,3.3,2.1,6.2,4.1,8.8c0.6,0.8,1.2,1.6,1.7,2.5c1.7,2.7,3.3,3.1,5.8,1.5c1.6-1,2.2-3.7,0.7-5.6c-3.7-4.6-5.8-10-8.8-15
	c-0.5-0.8-0.9-1.7-1.9-1.6c-1.7,0.2-1.8-1-1.9-2.1c-0.2-1.3,0.7-2.6-0.4-3.9c0.2-0.1,0.4-0.1,0.6-0.2c0.8,1.2,1.8,2.3,2.5,3.6
	c2.4,5,5.5,9.6,9.4,13.6c1.1,1.2,2.1,2.6,3.2,3.9c0.6,0.8,1.1,1.8,2.4,1.3c1.4-0.5,0.5-1.6,0.4-2.4c-0.1-0.9-0.3-1.7-0.5-2.6
	c-0.2-1.1-0.4-2.1-2-1.6c-1,0.3-1.8-0.4-2.1-1.2c-0.5-1.4-1.3-2.2-2.9-2.5c-1.2-0.2-1.5-1.2-1.4-2.3c0-0.9,0.6-1.4,1.4-1.9
	c0.9-0.5,1.2,0.3,1.7,0.7c0.4,0.4,0.9,0.9,1,1.4c0.4,1.2,1.6,1.6,2.4,1.3c1.5-0.5,1.4,0.3,1.7,1.3c0.7,2.9,1.4,5.7,2.1,8.6
	c0.5,2.2,2.1,3.4,4.1,3.5c3.8,0.3,6.2,4.6,6.2,7.9c0,3,3,5.2,5.8,4.5c1.6-0.4,3.1-0.9,4.6-1.8c2.4-1.6,5.1-1.7,7.9-0.7
	c1.4,0.5,2.3,1.5,2.9,2.6c0.7,1.4,1.9,2.2,3.1,3.1c1.8,1.4,3.5,0.2,5.2-0.3c1.4-0.5,2.7-0.6,4.1-0.2c2.3,0.6,4.2,0.1,6.1-1.5
	c4.4-3.7,6.5-8.4,7.7-13.9c0.6-3,1.3-5.9,2.6-8.7c1.1-2.2,2.5-4.3,4.2-6c2.7-2.9,3.9-6.3,3.9-10.2c0-3.1,0.6-5.8,2.2-8.4
	c1.2-2.1,2.1-4.3,1.3-6.9c-0.4-1.4,0.7-2.5,1.6-3.5c1.3-1.3,2.2-2.6,0.5-4.3c-0.7-0.7-0.4-1.7,0.2-2.4c0.6-0.7,1.3-1.3,2.2-2.1
	c0,5.9-1.7,11.1-3,16.5c-0.3,1.3-0.6,2.6-0.2,4c0.7,2.8-0.3,5.4-1.3,7.9c-1.3,3.4-0.1,6.2,1.9,8.5c3.8,4.2,5.3,9.2,6.4,14.5
	c0.6,3.1,0,6.3,0.7,9.4c0.1,0.5,0.1,0.9,0.3,1.4c0.3,0.7,0.6,1.7,1.4,1.9c1,0.2,1.2-0.9,1.6-1.5c1.2-1.7,2.5-3.4,2.7-5.5
	c0.1-0.7,0.6-1.7-0.8-1.7c-0.5,0-0.8-0.5-0.7-1c0.2-0.7,0.7-0.7,1.3-0.5c0.6,0.3,1.3,0.5,1.5-0.3c0.5-3.4,2.9-5.9,4.4-8.8
	c0.7-1.3,1.1-2.6,1.6-3.9c0.4-1.1,1.1-1.5,2.2-1.2c1,0.3,0.9,1.2,0.7,2c-0.9,3.2-1.4,6.5-2,9.8c-0.7,3.8-1.8,7.9-5.3,10.5
	c-0.8,0.6-1.6,1-2.5,0.3c-1-0.7-1.6-0.4-2.1,0.5c-2.5,4.3-5.2,8.4-6.1,13.5c-0.4,2.1,0.4,3.4,2.5,3.3c1.8,0,3,0.6,4.4,1.7
	c2,1.5,4.5,1.8,6.9,1.2c2-0.5,3.5,0,5.3,0.9c3.1,1.6,6.2,3.9,10.1,2.8c2.1-0.6,3.7-1.6,4.8-3.6c2.7-4.9,7.1-6.9,12.5-7.2
	c0.6,0,2.9,1,1.9-1.5c0-0.1,0.2-0.3,0.4-0.4c0.3-0.1,0.5,0.1,0.5,0.4c0.2,0.9,0.9,1.3,1.4,1.9c1.6,1.8,3.3,1.8,5.1,0.3
	c2.5-2.1,5.1-4.1,6.6-7.2c1.4-2.7,3.8-4.3,7-4.7c2.1-0.3,3.9-1.7,5.2-3.5c1.2-1.7,2.7-3,4.9-3.2c1-0.1,1.3,0.3,1.2,1.2
	c-0.2,2.9-1.7,4.5-4.5,4.8c-2.5,0.2-4.7,2.1-5.5,4.5c-0.8,2.3-2.6,3.6-4.7,4.4c-1,0.4-1.9,0.9-2.8,1.6c-2,1.7-4.1,3.3-6.2,4.8
	c-3.1,2.2-4.6,5.6-5.7,9c-1,2.9-2.1,5.7-4.4,7.7c-1,0.9-0.7,2.1-1,3.1c-1.1,4.3-0.4,8.4,3.3,10.2c2.2,1.1,4.3,2.5,6.5,3.5
	c1.8,0.8,2.3,1.8,1.5,3.6c-0.7,1.7-1.5,3.4-2,5.3c-0.3,1.2-0.4,2.4,0,3.6c0.5,1.3,1.4,2.1,2.8,1.6c6.8-2.1,14-3.1,20.8-5.5
	c3-1.1,6-2.2,9-3.3c0.3-0.1,0.7-0.1,0.9,0.1c0,0.7-0.7,0.7-1.2,0.9c-3.4,1.7-7.2,2.5-10.8,3.8c-2.6,1-5.2,2.1-7.8,3.3
	c-2.1,1-4.5,0.7-6.5,1.9c-2.3,1.3-4.3,2.9-6.8,3.8c-1.9,0.7-3.1,4.5-2.3,6.9c1.3,4.3,1.8,8.8,4.9,12.4c1.3,1.6,2.5,3.1,4,4.5
	c1.3,1.2,2.6,2.3,3.4,3.9c0.2,0.5,0.8,1,1.4,1.1c4.4,1.4,8.5,3.9,13,4.5c3.6,0.5,6.3,2.7,9.4,3.9c1.5,0.6,2.9,1.3,4.6,1.5
	c1,0.1,2.1,0.6,2.3,2.2c-1.4-0.5-2.6-0.7-3.7-1.2c-2.8-1.5-5.9-1.8-9-1.8c-1.9,0-3.6,0-4.7-1.9c-0.4-0.7-1.2-0.7-2-0.9
	c-2.5-0.6-5.1-1-7.4-2.3c-1.9-1.1-3.5-0.7-5.1,0.8c-3.9,3.5-7,7.5-8.9,12.5c-0.7,1.8-2.1,3.1-2.8,4.9c-0.4,1.1-0.4,1.5,0.8,1.6
	c0.3,0,0.5,0.2,0.8,0.3c0.6,0.2,1.3,0.4,1,1.2c-0.3,0.7-1,0.8-1.7,0.6c-0.8-0.3-3.9-0.4-4.5,0.1c-1.6,1.2-3.7,1.6-4.9,3.4
	c-0.6,0.9-1.3,1.7-1,3c0.4,1.7-0.4,2.4-2.1,1.8c-1.5-0.5-2.3,0.3-3.5,1.1c-3.6,2.6-4.1,7.5-7.8,9.8c-2.8,1.8-5.6,3.3-8.1,5.5
	c-0.8,0.7-1.9,1.3-2.3,2.4c-0.1,0.4-0.2,0.4-0.6,0.4c-3.4-0.1-6.7,0.6-10,1.7c-1,0.4-2,0.9-2,2.2c-0.1,0.9-0.7,1.2-1.4,1
	c-1.8-0.5-2.5,0.9-3.4,2c-0.3,0.3-0.5,0.7-0.2,1.1c1.4,1.5,1.2,1.8-0.7,1c-0.1,0-0.4,0.1-0.5,0.3
	C329.8,515.9,328.1,517.9,327.5,520.4L327.5,520.4z"/>
<path class="st0" d="M112.7,443.7c-7.9,0.5-15.8-0.5-23.8-0.2c-4.7,0.2-9.5,0.8-14.3,0.9c-3.6,0.1-7.4,0-11-0.2
	c-4.7-0.2-9.5-0.4-13.5,2.9c-2.9,2.5-6.1,4.3-10.1,4.3c-2.3,0-4.4,1-6.4,2.2c-0.8,0.4-1.6,0.8-2.3,1.3c-3,1.8-5.9,0.6-8.8-0.5
	c-1-0.4-1.2-1.6-0.7-2.4c0.8-1.4,1.9-2.6,3.8-2c1.8,0.6,3.7,0.6,5.5,0.9c3.3,0.4,5.9-1.1,7.6-3.3c2.3-3.1,5.3-3.9,8.7-4.2
	c4.9-0.4,9.7-1,14.5-1.8c3.5-0.6,6.9-1.8,10.2-2.9c4.5-1.5,9.1-1.3,13.8-1.4c0.2,0,0.4,0,0.6,0.1c5.6,2.5,11.6,1,17.4,1.6
	c5.2,0.5,10.5-0.2,15.7,0.7c1.4,0.3,2.9-0.2,4.3,0.4c0.4,0.2,1,0.2,1,0.8c0,0.6-0.5,0.8-0.8,1.1c-1,0.8-2.3,0.8-3.4,1
	C118,443.2,115.4,443.4,112.7,443.7z"/>
<path class="st0" d="M473.6,472.9c1.8,0.2,3.6,0.4,5.4,0.6c0.1,0,0.1,0.1,0.2,0.1c4.3-1.9,7,2,10.3,3.1c4.5,1.5,9,3.4,13.3,5.6
	c2.3,1.1,4.7,1.9,6.7,3.5c2,1.6,4.1,1.8,6.5,1.2c2.8-0.7,8.5,2.1,9.8,4.7c0.9,1.9,0.3,3.1-1.8,3.2c-4.2,0.3-8.2-0.2-11.3-3.3
	c-2.1-2.1-4.9-2-7.5-2.3c-3.6-0.4-7.2-1.1-10.6-1.9c-4.1-1-8.3-2.1-12.1-4.2c-1.9-1.1-4.1-1.6-6.1-2.6c-1.7-0.9-3.4-1.8-4.6-3.5
	c-0.6-0.9-1.9-1.7-1.3-2.9C471,473,472.3,472.8,473.6,472.9z"/>
<path class="st0" d="M203,491.1c0,4.1-3.8,9.4-10.2,8.7c-1.4-0.2-2.8-0.1-4.2,0.1c-4,0.7-8.2-1.3-8.6-5.7c-0.2-2.7,1.6-5.7,4.6-6.9
	c1.6-0.6,3-1.4,4.4-2.3c4-2.6,7.2-2.6,11.2,0.1C201.8,486.1,203,488.9,203,491.1z"/>
<path class="st0" d="M400.4,497.6c-0.2,0-0.2,0-0.3,0c-1.1-0.1-2.3-0.5-3.4-0.2c-1.5,0.4-0.5,2-0.9,3c-1,2.4-3.5,3.5-6,2.5
	c-1.4-0.6-2.6-1.3-4.2-1c-0.4,0.1-1.1-0.3-1.2-0.6c-0.7-2.4-3.1-2.9-4.7-4.1c-2.2-1.6-4.3-3.2-5.9-5.4c-0.8-1.1-1.9-1.9-3.1-2.5
	c-0.9-0.5-1.5-1.2-1.4-2.2c0.1-0.7,0.6-0.8,1.2-0.9c1-0.2,1.9,0.1,2.4,1c1.7,3.3,4.6,5.5,7.4,7.8c1,0.8,1.4,0.6,1.5-0.6
	c0.3-3.8,4.5-6.2,8.1-3.8c0.5,0.3,1,0.6,1.6,0.9c1.1,0.6,1.9,0.3,2.5-0.9c0.9-1.7,2.3-2.7,4.1-3.3c2.8-1,5.6,0.2,7,3
	c1.3,2.5,0.4,5.6-2,7.1C402.1,498,401.2,497.8,400.4,497.6z"/>
<path class="st0" d="M448.1,423.7c-6.2,0.1-9.8-2.3-11.4-7.4c-0.7-2.2-0.2-4,1.8-5.2c1.9-1.1,3.9-1.7,6.2-1.2
	c1.1,0.2,2.3,0.2,3.4,0.4c3,0.6,4.8,2.9,6.6,5c1.2,1.3-0.1,5.4-1.9,6.7C451.2,423.1,449.6,423.9,448.1,423.7z"/>
<path class="st0" d="M141.7,335.8c-4.8-0.1-9.3-4-9.5-8.5c-0.2-4,3.8-7.7,7.6-6.7c3.3,0.9,6.2,2.6,7.8,5.9
	C149.9,331,146.9,336,141.7,335.8z"/>
<path class="st0" d="M216.6,294.2c0.6-0.9-0.1-2.6,1.3-2.8c1.6-0.2,2.9,1,3.9,2.1c0.4,0.5,0.7,1.4,0.7,2c-0.2,3.7,2.1,5.9,4.6,8.1
	c3.9,3.4,8.1,6.4,11,10.8c0.7,1.1,2.1,2.3,1.2,3.5c-0.7,0.9-2.2-0.1-3.2-0.5c-0.5-0.2-1.1-0.5-1.5-0.4c-4.2,1.2-5.3-2.5-6.9-4.8
	c-2.5-3.5-3.9-7.7-5.7-11.7c-0.6-1.4-1.5-2.4-2.8-3.3C217.8,296.6,216.8,295.7,216.6,294.2z"/>
<path class="st0" d="M454.6,308.5c-0.7,1.5-0.4,3.5-2.8,4.1c-3.7,0.9-5.6,4.1-8,6.7c-4.2,4.4-8.6,8.7-14,11.7
	c-0.7,0.4-1.7,1-2.3,0.1c-0.5-0.8,0.3-1.4,0.9-2c2.5-2.8,4.8-5.6,7.4-8.2c2.4-2.5,5-4.9,8.1-6.5c2.2-1.1,4.1-2.6,5.4-4.7
	c0.8-1.4,2.3-1.9,3.7-2.4C454,306.7,454.5,307.3,454.6,308.5z"/>
<path class="st0" d="M413.4,434.1c-2.5,0-4.5-1.1-5.7-3.4c-1-2-0.4-3.9,0.8-5.6c0.8-1.2,2.1-1.4,3.3-1.8c1.1-0.3,2.2-0.5,3.1-1.4
	c0.8-0.8,1.5-0.3,2,0.4c0.4,0.5,0.7,1.2,1.1,1.6c2.9,2.8,3.1,3.3,1.7,6.6C419,432.3,415.8,434.1,413.4,434.1z"/>
<path class="st0" d="M300,324.4c2.1-0.1,2.9,0.8,3.4,2c1.4,3.5,1.9,7.1-0.6,10.2c-1.3,1.6-2.3,3.8-5,3.8c-0.9,0-1.6-0.3-2.1-1
	c-2-3.4-1.6-9.3,1.1-12.2C297.9,326.1,298.9,324.7,300,324.4z"/>
<path class="st0" d="M157.7,473.8c0.4,0,1,0.2,1.2,0c1.9-2.4,2-0.3,2.6,1c0.3,0.8,1,1.4,1.5,2.1c1,1.7,0.6,4.2-1,5.5
	c-3.2,2.7-8.1,2.3-10.8-1c-0.2-0.2-0.3-0.5-0.3-0.7C150.6,477.5,154.5,473.7,157.7,473.8z"/>
<path class="st0" d="M461.3,387.3c-4.3,5.4-9.7,9.3-16.3,11.7c-6,2.2-11.9,4.8-17.8,7.2c-2.1,0.9-3.9,2.7-7.1,2.1
	C434.9,402.6,447.7,394.1,461.3,387.3z"/>
<path class="st0" d="M267.6,258.4c0.1-3.6,1.5-5.3,4.4-5.2c3.4,0.1,6.1,2.6,6,5.5c-0.1,2.2-3.1,5-5.4,4.9
	C269.8,263.6,267.5,261.2,267.6,258.4z"/>
<path class="st0" d="M437.5,466.2c2.4,0.4,4.8,0.7,7.2,1.2c2,0.4,3.9,0.8,5.9,1c2.6,0.3,4.5,2,5.8,4.2c0.8,1.4-0.5,2.8-2.5,2.8
	c-2.3-0.1-4.3-1.2-6.2-2.1c-3.4-1.6-6.5-3.8-9.6-6c-0.3-0.2-0.6-0.4-0.8-0.6C437.3,466.6,437.4,466.4,437.5,466.2z"/>
<path class="st0" d="M420.5,470c3.1,0.2,5.1,1,6,3.1c1.6,3.9,0.5,5.6-4.7,6.1c-2.7,0.3-5.3-2-5.5-4.5
	C416.1,472.2,418.8,469.7,420.5,470z"/>
<path class="st0" d="M197.4,466.2c0,2.3-1.1,3.8-3.4,4.7c-1.9,0.8-3.5-0.1-4.9-1.3c-1.5-1.2-2.1-2.9-3.1-4.4c-0.3-0.4-0.2-1,0.2-1
	c2.1-0.2,3.2-2.3,5.3-2.7C194.2,461.2,197.4,463.6,197.4,466.2z"/>
<path class="st0" d="M223.8,264.2c-4.3-6.9-7.6-14-10.4-21.4c-1.1-2.8-2.1-5.6-4-8c-0.7-0.9-0.4-1.9-0.1-2.9
	c0.1-0.6,0.7-0.8,1.3-0.4c2,1.1,3.7,4.2,3.3,6.5c-0.2,0.9,0,1.6,0.3,2.3c1.6,3.4,3.4,6.6,4.8,10.1c1.6,4,3.9,7.7,5,12
	C224.1,262.9,224.2,263.5,223.8,264.2z"/>
<path class="st0" d="M227,499.5c0.1-2,0.5-4.6,2.5-4.9c2-0.3,3.8,1.6,5,3.5c1.4,2.1,1,4.2-0.8,5.4c-1.9,1.2-4.6,0.7-6-1
	C227,501.6,227,500.6,227,499.5z"/>
<path class="st0" d="M187,270.1c-1.4-2-2.7-4-4.1-5.9c-0.1-0.1-0.1-0.3-0.2-0.4c-3.8-3.8-5.4-9.1-9-12.9c-1-1-2.1-1.8-3.2-2.7
	c-1.3-1.1-1.7-2.7-1.9-4.3c-0.2-1.1,0.4-1.6,1.4-1c2.2,1.3,4.4,2.3,4.7,5.6c0.2,2.6,2.1,4.9,3.8,7c1.3,1.5,2.4,3.1,3.2,4.8
	c1.5,3,3.5,5.7,5.2,8.6C187.1,269.1,187.4,269.4,187,270.1z"/>
<path class="st0" d="M495.2,452c-0.9-0.1-1.7-0.1-2.6-0.4c-1.6-0.7-2.7-2-2.6-3.5c0.2-1.6,1.2-3.2,3.1-3.5c1.7-0.3,3.5-0.2,5,1
	c1,0.8,2.1,1.7,2,3.1c-0.1,1.5-1.2,2.4-2.6,3C496.8,452,496,452.1,495.2,452z"/>
<path class="st0" d="M98.4,306.5c2.4-0.2,5.3,1.8,5.9,4.2c0.5,2-1.1,3.7-3.4,3.6c-2.4-0.1-5.3-2.6-5.6-5
	C95.1,307.7,96.2,306.7,98.4,306.5z"/>
<path class="st0" d="M375.8,498c1.5,1.3,3.9,1.2,6.1,1.8c1.3,0.4,1.5,2.1,0.8,3.5c-0.7,1.5-2,1.7-3.2,1.1c-1.4-0.7-2.7-0.9-4.2-0.7
	c-1.4,0.2-3.2-1.7-3.2-3.1C372.1,498.9,373.3,498,375.8,498z"/>
<path class="st0" d="M458.6,364.9c0.1-1.2,0.9-1.6,1.7-2c4-1.8,7.9-3.6,11.9-5.3c1.1-0.5,2.4-0.3,3.5-0.8c1.2-0.5,2.5-0.9,3.3-2.1
	c0.5-0.9,1.5-0.7,2.4-0.7c0.5,0,1,0.1,1.1,0.7c0.1,0.5-0.1,0.9-0.5,1.2c-0.4,0.3-0.9,0.6-1.5,0.6c-2.7-0.1-4.6,1.5-6.4,3.3
	c-1.5,1.4-3.5,1.3-5.2,1.9c-2.2,0.8-4.5,1.3-6.5,2.5C461.2,364.8,459.8,364,458.6,364.9z"/>
<path class="st0" d="M176.6,382.2c-3.5-0.5-6.1-1.2-8.3-3.4c-1.3-1.3-3.1-2.1-4.6-3.2c-0.8-0.6-2.2-1.5-1.5-2.4
	c0.7-0.9,1.9,0.1,2.7,0.8c1.2,1,2.6,1.5,4.1,1.5c1.4,0.1,2.6,0.6,3.9,1c1.3,0.5,2.2,1.4,2.2,2.8C175.1,380.4,175.7,381,176.6,382.2z
	"/>
<path class="st0" d="M158.6,334.1c2.1,0,4.4,2.1,4.4,4.2c0,1.8-1.4,3.3-3.3,3.4c-2.1,0.1-4.9-2.3-4.8-4.3
	C154.8,335.7,156.6,334.2,158.6,334.1z"/>
<path class="st0" d="M225.2,289.7c-1.5-1.6-2.8-3.4-3.9-5.3c-1.6-3.1-3.6-5.8-6-8.3c-1.4-1.4-1.4-3.1-1.3-4.8c0.1-1.2,0.6-1,1.2-0.3
	c1.3,1.5,2.9,2.9,2.7,5.2c0,0.6,0.3,1.2,0.5,1.7c0.2,0.4,0.4,0.9,1,0.8c0.6-0.1,0.3-0.6,0.5-1c0.3-0.7,0.9-1.3,1.6-1.3
	c1,0,1.7,0.9,1.9,1.6c0.3,1.4-0.6,1.9-1.9,1.8c-0.5-0.1-1.2-0.3-1.5,0.2c-0.4,0.6,0.2,1.1,0.6,1.6c1.7,2.6,3.4,5.2,5,7.8
	C225.5,289.5,225.4,289.6,225.2,289.7z"/>
<path class="st0" d="M81.9,422.7c1.2,0.2,2.3,0.6,2.7,2.1c0.4,1.4-0.2,2.3-1.4,3c-0.9,0.5-1.7,1.2-2.3,2.2c-0.7,1.2-2,1.5-3.4,1
	c-1.3-0.5-1.7-2-0.6-2.8c1-0.8,1.5-1.7,1.7-3C78.9,423.6,80.1,422.7,81.9,422.7z"/>
<path class="st0" d="M436.5,339.5c-0.6,0.2-0.9,0.1-1-0.2c0-0.2,0-0.6,0.2-0.7c0.9-1,1.8-2,2.9-2.8c2.1-1.5,3.7-3.6,6.3-4.5
	c2-0.7,3.4-2.4,4.9-3.8c0.5-0.5,1.4-1.6,2.1-0.6c0.5,0.7-0.3,1.7-1.2,1.9c-1.1,0.3-1.5,1.3-2.2,2c-3.4,3.3-7.3,6-11.4,8.5
	C436.9,339.5,436.5,339.5,436.5,339.5z"/>
<path class="st0" d="M280.8,326c1.6,0,4.1,2.2,4.2,3.8c0.1,1.4-2,3.5-3.6,3.5c-1.4,0-3.8-2.5-3.9-4.1
	C277.5,327.7,279.2,326.1,280.8,326z"/>
<path class="st0" d="M138.4,509.7c2,0,3.2,1,3.1,2.5c0,2.2-1.8,3.9-4,3.9c-1.6,0-3.7-1.5-3.7-2.8
	C133.8,511.7,136.2,509.8,138.4,509.7z"/>
<path class="st0" d="M63.6,451.3c1,0.4,2.8-0.1,3.1,2c0.3,1.9-0.9,2.6-2.4,3.2c-0.7,0.3-1.4,0.5-2.1,0.4c-1.8-0.2-3.5-1.5-3.4-2.9
	c0.1-1.7,1.7-2.1,3-2.5C62.3,451.3,62.8,451.3,63.6,451.3z"/>
<path class="st0" d="M500.7,372.2c-1.6,1.1-2.8,1.9-4.5,1.3c-1-0.4-2.1-0.2-3.2,0.1c-1.7,0.5-3.3,0.7-5.1,0.4c-2.2-0.5-4.1,1.1-6,2
	c-0.5,0.3-1.2,1.4-1.7,0.3c-0.4-0.9-0.8-2.2,0.9-2.6c0.6-0.1,1.1-0.5,1.7-0.5c3.6-0.1,7.1-1.4,10.7-0.8c1.1,0.2,2.1,0.1,3.1-0.4
	C497.9,371.5,499.1,371.8,500.7,372.2z"/>
<path class="st0" d="M353.5,366.6c-1.3-0.7-2-0.2-2.5,1.4c-0.4,1.3-1.9,1.4-2.9,0.9c-1.2-0.5-1.5-1.9-0.9-2.9c0.6-1,1.7-1.6,2.9-1.1
	c0.8,0.4,1.5,1,1.5-0.6c-0.1-1.8,1.4-2.1,2.6-2.2c1.4-0.1,2.2,1,2.1,2.4C356.1,365.9,355.2,366.7,353.5,366.6z"/>
<path class="st0" d="M263.2,316.3c0,1.5-1.4,3-2.9,3c-2,0.1-3.2-1.3-3.3-3.5c-0.1-1.4,1.5-3.2,2.8-3.2
	C261.4,312.6,263.2,314.6,263.2,316.3z"/>
<path class="st0" d="M416.4,381.1c2.3,0.5,4.1,1,3.9,2.6c-0.2,1.5-2.2,3.3-3.9,3.2c-1.4-0.1-3.2-1.9-3.1-3.2
	C413.3,382.6,415.2,381,416.4,381.1z"/>
<path class="st0" d="M393.3,351.1c-1.6-0.1-3-1.4-2.9-2.8c0.1-1,2.2-3.7,2.9-3.6c1.3,0.1,3.4,2.2,3.4,3.4
	C396.7,349.2,394.5,351.2,393.3,351.1z"/>
<path class="st0" d="M260.4,331c-1.7-1.7-3.1-3.4-3.6-5.7c-0.3-1.1-0.1-2.1,1.2-2.7c1.3-0.6,2.1-0.1,3.1,0.8c1,1,1.2,2.4,0.4,3.1
	C259.9,327.9,259.8,329.2,260.4,331z"/>
<path class="st0" d="M474.1,247.2c-0.1,1.8-1.2,2.9-3.1,2.8c-1.3,0-2.7-1.3-2.6-2.5c0.1-1.7,1.7-3.2,3.3-3.2
	C473,244.4,474.1,245.6,474.1,247.2z"/>
<path class="st0" d="M496.7,304.1c1.9-1.9,4-3.5,6.1-5.1c1.4-1.1,2.9-1.9,3.6-3.7c0.3-0.8,1.2-1.3,2-1.6c0.8-0.3,1.6-0.5,2.1-1.4
	c0.2-0.4,0.6-0.6,1-0.3c0.5,0.4,0.1,0.7-0.2,1c-1.5,1.6-2.7,3.4-4.7,4.5c-3.1,1.7-5.5,4.5-8.7,6.2
	C497.6,304,497.4,304.5,496.7,304.1z"/>
<path class="st0" d="M209.6,515.9c1.7,0,3,1.1,3.1,2.5c0,1.4-1.3,2.8-2.8,2.9c-1.9,0.1-2.8-0.9-2.9-2.8
	C206.9,516.6,207.9,515.9,209.6,515.9z"/>
<path class="st0" d="M168.4,341.8c1.8,0,3.6,1.5,3.6,3.1c0,1.5-0.8,2.2-2.3,2.2c-1.9,0-3.2-1.1-3.2-2.8
	C166.5,342.6,167.1,341.8,168.4,341.8z"/>
<path class="st0" d="M117.1,357.5c1.8,0,3.7,1.5,3.7,2.9c0,1.6-1.2,2-2.4,2c-1.6,0.1-3.5-1.6-3.5-3
	C114.8,358,115.7,357.5,117.1,357.5z"/>
<path class="st0" d="M161.8,323.9c0-1.3,0.4-2,1.3-1.9c1.1,0.1,1.7-0.2,2.1-1.3c0.2-0.7,0.9-0.7,1.6-0.6c1,0.2,1.3,0.9,1.5,1.7
	c0.2,0.7-0.4,0.9-0.9,1.1c-0.7,0.2-1.3,0.5-1.4,1.3c-0.1,1.2-0.5,2-1.9,1.7C162.8,325.5,161.7,325,161.8,323.9z"/>
<path class="st0" d="M62.5,424.3c1.3,0.3,3.2-0.1,3.4,2c0.1,1.3-1.5,2.2-3.3,2.2c-1.5,0-3.1-0.4-3.1-2.1
	C59.3,424.6,61,424.4,62.5,424.3z"/>
<path class="st0" d="M497.4,325.8c0,1.1-1.8,2.7-3.1,2.7c-1.2-0.1-2.3-0.6-2.5-1.9c-0.2-1,2.3-3.1,3.5-3.1
	C496.3,323.5,497.4,324.7,497.4,325.8z"/>
<path class="st0" d="M353.9,299.2c0,1.8-1.3,3.2-2.7,3.1c-1.6,0-2-1.2-2.2-2.4c-0.2-1.4,1.5-3,2.8-2.9
	C353.3,297,354,297.9,353.9,299.2z"/>
<path class="st0" d="M215.1,365.6c1.5,0.1,2.5,0.9,2.6,2.5c0,1.3-0.8,2.2-2.1,2.3c-1.4,0.1-2.9-1.2-2.8-2.6
	C212.9,366.5,213.4,365.4,215.1,365.6z"/>
<path class="st0" d="M74.6,461.7c-1.4-0.1-3-0.4-2.9-2.1c0.1-1.7,1.9-2,3.3-2c1.2,0,2.6,0.4,2.5,2C77.4,461.2,76.1,461.7,74.6,461.7
	z"/>
<path class="st0" d="M87.2,406.8c1.5,0.1,2.3,1,2.2,2.2c-0.1,1.4-1.2,2-2.6,1.9c-1.6-0.1-2.7-1-2.6-2.4
	C84.3,406.9,86.1,407.1,87.2,406.8z"/>
<path class="st0" d="M330.1,529.2c2.8,3.8,2.9,8.1,3.8,12.2c-0.9-1-2.5-1.6-1.5-3.3c0.2-0.3-0.3-1-0.6-1.4
	C330.8,534.9,330.1,531.8,330.1,529.2z"/>
<path class="st0" d="M146.8,499.6c-0.2,1.6-1.3,2.4-2.6,2.4c-1.1,0-2.3-0.5-2.3-2c0-1.5,1.2-2.1,2.4-2.2
	C145.5,497.7,146.4,498.4,146.8,499.6z"/>
<path class="st0" d="M217,331c0.2-1,1.1-1.4,2.2-1.3c1.4,0.2,2.4,1.3,2.3,2.6c0,1.1-1,1.8-2.3,1.7C217.5,333.8,217,332.7,217,331z"
	/>
<path class="st0" d="M146.9,280.6c-1.2-0.2-2.3-0.9-2.5-2.3c-0.2-1.3,1.1-2,2.1-1.9c1.2,0,2.6,0.4,2.7,2.1
	C149.3,279.9,148.4,280.5,146.9,280.6z"/>
<path class="st0" d="M445,340.4c2.8-2.7,4.9-5.3,7.5-7.5c0.4-0.3,0.8-0.6,1.2-0.3c0.4,0.3,0.3,0.8,0.1,1.1c-0.3,0.6-0.6,1.4-1.1,1.6
	c-2.4,1.2-4.3,3.2-6.5,4.7C446,340.3,445.8,340.2,445,340.4z"/>
<path class="st0" d="M122,490.8c-0.9-0.4-2.2-0.7-2-2c0.2-1.6,1.8-2,3.1-2c0.9,0,2,0.6,1.7,1.8C124.5,489.9,123.7,490.9,122,490.8z"
	/>
<path class="st0" d="M230,532.1c0.1-1.6,1-2.4,2.3-2.4c1.3,0,2.1,1.1,2.1,2.3c0,1.2-0.8,2.4-2.2,2.4
	C230.7,534.4,230.1,533.3,230,532.1z"/>
<path class="st0" d="M158.6,519.1c-0.9-0.3-2.3-0.1-2.2-1.7c0.1-1.7,1.5-2.3,2.9-2.4c1.2-0.1,1.9,0.7,1.9,1.8
	C161.2,518.3,160.2,519,158.6,519.1z"/>
<path class="st0" d="M501,335.4c1.3,0,1.9,0.6,2.1,1.6c0.2,1-1.7,2.5-3.1,2.4c-1-0.1-1.9-0.4-1.9-1.6
	C498.1,336.5,499.6,335.4,501,335.4z"/>
<path class="st0" d="M180,311.2c0.9,0,2.2,1.3,2.1,2.7c0,1.1-0.7,1.5-1.7,1.5c-1.2,0-2.9-1.6-2.7-2.6
	C177.8,311.8,178.6,311.3,180,311.2z"/>
<path class="st0" d="M221.3,339c1.3,0.2,2.1,1,2.2,2.5c0.1,1.3-0.9,1.8-1.9,1.9c-1.1,0.1-2.5-1.5-2.4-2.8
	C219.2,339.4,220,339,221.3,339z"/>
<path class="st0" d="M268,540.9c1.2,0.3,2.2,0.7,2.2,2.2c-0.1,1.5-1.1,2-2.3,1.9c-1.5,0-2.1-1.1-2.1-2.4
	C265.7,541.2,267,541.1,268,540.9z"/>
<path class="st0" d="M238.9,537.6c-0.1-1.9,0.8-3,2.1-3.1c1.1-0.1,1.7,1.2,1.7,2.3c0,1.5-1,2.2-2.3,2.3
	C239.1,539.2,239,538.1,238.9,537.6z"/>
<path class="st0" d="M248.9,321c1.1,0.1,1.9,1,1.9,2.3c0,1.3-1.6,2.5-2.3,2.3c-1.1-0.2-1.6-1.8-1.4-3.1
	C247.2,321.7,247.2,320.7,248.9,321z"/>
<path class="st0" d="M468.9,443.5c-1.2,0-2.2-0.5-2.2-1.6c0-1.4,1.2-1.9,2.4-1.8c1,0,2,0.5,2,1.6C471,442.9,470,443.4,468.9,443.5z"
	/>
<path class="st0" d="M90.7,357.5c1.2,0.3,2.4,0.7,2.5,2.1c0,1-0.9,1.5-1.8,1.5c-1.3-0.1-2.4-0.9-2.5-2.2
	C88.7,357.9,89.7,357.6,90.7,357.5z"/>
<path class="st0" d="M367.7,312.3c-0.5,1.2-1,2.4-2.4,2.4c-1.3-0.1-1.4-1.5-1.4-2.3c0-0.9,0.9-1.8,1.9-1.7
	C366.7,310.6,367.6,311.2,367.7,312.3z"/>
<path class="st0" d="M398.9,510.4c0,0.5-0.3,0.9-0.7,0.6c-1.5-1-3.4-1.4-4.1-3.3c-0.2-0.4-0.3-0.8,0.1-1.1c0.2-0.1,0.6,0,0.9,0.1
	C396.7,507.3,398.9,509.3,398.9,510.4z"/>
<path class="st0" d="M181.3,387.5c-1.3-0.2-2.4-0.6-2.6-2c-0.1-0.7,0.1-1.4,1.1-1.2c1.3,0.3,2.8,0.4,3,2.1
	C183,387.5,181.9,387.2,181.3,387.5z"/>
<path class="st0" d="M501.6,505.2c-0.3,1-1,1.4-1.8,1.4c-1.2-0.1-2.3-0.5-2.4-1.9c0-0.9,0.4-1.4,1.4-1.3
	C500,503.4,501.1,503.9,501.6,505.2z"/>
<path class="st0" d="M314.7,530c0.1,1.1-0.4,1.7-1.5,1.6c-1-0.1-2.2-0.4-2.1-1.6c0-1.1,1-1.7,2.1-1.7
	C314.3,528.3,314.6,529,314.7,530z"/>
<path class="st0" d="M336.9,364.4c-0.9,0-1.5-0.5-1.6-1.5c-0.1-1.1,0.8-1.5,1.5-1.5c1,0,2.1,0.6,2.2,1.6
	C339.2,364.4,337.9,364.1,336.9,364.4z"/>
<path class="st0" d="M155,342.1c-1,0.4-1.9-0.4-2.9-0.3c-0.5,0.1-1.1,0-1.3-0.7c-0.1-0.7-0.2-1.3,0.4-1.8c0.5-0.4,1.1-0.5,1.7-0.2
	C154.2,339.7,154.9,340.8,155,342.1L155,342.1z"/>
<path class="st0" d="M334.2,542.9c2.5,1.8,2,4.4,2.1,6.9C335.1,548.6,333.9,544.7,334.2,542.9z"/>
<path class="st0" d="M113.2,369.4c-0.2,1.2-1.1,1.9-2.1,1.9c-0.8,0-1.7-0.9-1.6-1.7c0.1-1.1,1.1-1.7,2.1-1.7
	C112.5,367.8,113.2,368.3,113.2,369.4z"/>
<path class="st0" d="M331.4,328.1c0.9,0.5,1.4,1.1,1.3,2.1c-0.1,0.9-0.7,1.7-1.7,1.6c-1-0.1-1.6-0.8-1.4-1.8
	C329.7,329,330.5,328.4,331.4,328.1z"/>
<path class="st0" d="M386.8,311c-0.3,1-0.7,1.8-1.8,1.8c-1,0-1.7-0.4-1.7-1.6c0-1.3,1-1.6,1.8-1.7C386,309.5,386.7,310.1,386.8,311z
	"/>
<path class="st0" d="M286.7,517.8c1,0,1.5,0.8,1.5,1.7c-0.1,1-1,1.6-2,1.6c-1.3,0.1-1.4-1-1.4-1.8
	C284.9,518.5,285.6,517.8,286.7,517.8z"/>
<path class="st0" d="M161.5,504.8c-0.9,0-1.4-0.7-1.3-1.4c0.1-0.9,0.6-1.8,1.8-1.8c1,0.1,1.7,0.7,1.7,1.6
	C163.5,504.3,162.5,504.7,161.5,504.8z"/>
<path class="st0" d="M168.6,328.9c-0.1,0.8-0.6,1.1-1.3,1.1c-1.1,0-2-0.4-2-1.7c0-0.7,0.2-1.4,1.1-1.3
	C167.5,327,168.3,327.6,168.6,328.9z"/>
<path class="st0" d="M289.9,322.1c-0.9-0.2-1.6-0.9-1.7-1.7c-0.1-0.8,0.6-1.6,1.4-1.6c1,0,1.8,0.7,1.8,1.7
	C291.5,321.2,290.8,321.9,289.9,322.1z"/>
<path class="st0" d="M499.7,416.7c-1.1-0.1-1.9-0.8-1.9-1.7c0-0.8,0.9-1.3,1.8-1.3c0.8,0,1.7,0.2,1.7,1.3
	C501.3,416,500.6,416.5,499.7,416.7z"/>
<path class="st0" d="M418.6,362.6c1.8-1.4,3.5-3.2,6.5-3.4C423.3,361.7,420.8,361.8,418.6,362.6z"/>
<path class="st0" d="M355.7,519.7c-0.1,1.2-0.8,1.6-1.7,1.6c-1,0-1.6-0.8-1.5-1.7c0.1-0.8,0.5-1.6,1.6-1.4
	C355,518.3,355.5,518.9,355.7,519.7z"/>
<path class="st0" d="M347.1,270.2c0,0.9-0.1,1.8-1.1,1.7c-1.1-0.1-1.7-0.9-1.8-2c-0.1-1,0.8-1.9,1.5-1.9
	C346.9,268,346.8,269.4,347.1,270.2z"/>
<path class="st0" d="M98.1,387.4c-0.4,1.1-0.9,2-2.1,2.2c-0.8,0.1-1.3-0.4-1.3-1.2c0.1-1.4,1.4-1.5,2.3-1.9
	C97.6,386.2,97.9,386.8,98.1,387.4z"/>
<path class="st0" d="M328.4,522.7c1.6,1.4,2,3.1,1.5,5.1C328.2,526.6,327.9,525.6,328.4,522.7z"/>
<path class="st0" d="M175.5,409.7c-0.2,1-0.8,1.5-1.9,1.4c-1-0.1-1.7-0.8-1.6-1.7c0.1-0.8,0.8-1.3,1.6-1.1
	C174.5,408.4,175.5,408.4,175.5,409.7z"/>
<path class="st0" d="M432.8,464.5c-1.5,0.6-2.7,0.2-3.9-0.3c-0.7-0.3-1.3-0.7-0.8-1.5c0.4-0.7,1.1-0.8,1.7-0.2
	C430.7,463.3,431.6,463.9,432.8,464.5z"/>
<path class="st0" d="M351.6,508.1c1.5,0.8,2.6,2.1,3.4,3.4c0.2,0.3,0.2,0.8-0.1,1.1c-0.3,0.3-0.8,0.2-0.9,0
	C353.5,511,352.1,509.8,351.6,508.1z"/>
<path class="st0" d="M260.6,282.2c0.5-0.7,0.1-1.3-0.1-1.9c-0.2-0.5-0.1-1.1,0.5-1.4c0.4-0.2,0.8-0.2,1.1,0.1
	c0.4,0.3,0.8,0.7,0.6,1.3c-0.3,1-1.2,1.8-1.2,2.9c0,0.1-0.4,0.2-0.5,0.2C260.6,283.1,260.5,282.7,260.6,282.2z"/>
<path class="st0" d="M88.6,433.8c-0.1,0.9-0.5,1.4-1.4,1.5c-1,0-1.8-0.5-1.8-1.5c-0.1-0.9,0.7-1.4,1.6-1.4
	C87.9,432.4,88.4,433,88.6,433.8z"/>
<path class="st0" d="M268.2,327.3c-0.9-0.4-1.7-0.9-1.6-1.9c0.1-0.7,0.6-1.3,1.3-1.2c0.9,0.1,1.7,0.6,1.6,1.7
	C269.5,326.7,268.8,327.1,268.2,327.3z"/>
<path class="st0" d="M412.8,416.3c-1.1,0-1.6-0.5-1.7-1.3c-0.1-1.3,1-1.2,1.8-1.4c0.7-0.1,1.4,0.1,1.3,1
	C414.2,415.7,413.5,416.2,412.8,416.3z"/>
<path class="st0" d="M171.8,469c-0.1,0.9-0.6,1.4-1.5,1.4c-0.9,0-1.6-0.6-1.6-1.5c0-0.7,0.8-1.2,1.6-1.2
	C171.3,467.6,171.6,468.2,171.8,469z"/>
<path class="st0" d="M419.5,509.4c0,1-0.6,1.4-1.2,1.4c-0.9,0.1-1.6-0.4-1.7-1.3c-0.1-0.9,0.7-1.2,1.4-1.2
	C418.8,508.3,419.3,508.7,419.5,509.4z"/>
<path class="st0" d="M428.1,480.9c-0.4,0.8-0.8,1.4-1.8,1.3c-0.7-0.1-1.4-0.4-1.3-1.2c0.1-0.8,0.6-1.3,1.5-1.2
	C427.2,479.9,428,480,428.1,480.9z"/>
<path class="st0" d="M454,496.9c0.8,0.2,1.7,0.3,1.7,1.4c0,0.7-0.6,1.2-1.4,1.1c-0.9-0.1-1.6-0.6-1.6-1.5
	C452.7,497.3,453.3,496.9,454,496.9z"/>
<path class="st0" d="M442.3,496.9c0.7,0.4,1.8,0.5,1.7,1.7c-0.1,0.7-0.7,1.2-1.4,1.1c-0.8-0.2-1.7-0.4-1.6-1.4
	C440.9,497.4,441.5,497,442.3,496.9z"/>
<path class="st0" d="M175,460c-0.2,1-0.8,1.5-1.7,1.5c-0.7,0-1.4-0.3-1.4-1.1c0-0.9,0.8-1.4,1.7-1.3
	C174.3,459.1,174.9,459.2,175,460z"/>
<path class="st0" d="M351.9,325.7c0.8,0.2,1.2,0.7,1.2,1.4c0,0.7-0.2,1.6-1.1,1.7c-0.8,0.1-1.4-0.7-1.5-1.4
	C350.3,326.6,351.2,326.1,351.9,325.7z"/>
<path class="st0" d="M541.2,398.1c-0.6-0.3-1.6-0.3-1.6-1.2c0-1,0.9-1.1,1.6-1.1c0.7,0,1.5,0.1,1.5,0.9
	C542.7,397.4,542.1,397.9,541.2,398.1z"/>
<path class="st0" d="M390.3,401.9c-0.1,1.1-0.9,1.3-1.6,1.3c-0.7,0.1-1.3-0.4-1.3-1.2c0-0.9,0.7-1.2,1.3-1.2
	C389.5,400.7,390.1,401.2,390.3,401.9z"/>
<path class="st0" d="M427.3,515.8c0.8,0.1,1.4,0.4,1.5,1.2c0.1,0.8-0.4,1.3-1.2,1.3c-0.9,0-1.5-0.6-1.6-1.5
	C426,516.2,426.5,515.9,427.3,515.8z"/>
<path class="st0" d="M519,394.5c-0.3,0.8-0.9,1.4-1.7,1.4c-0.7,0-1.5-0.3-1.5-1.2c0-0.8,0.7-1.1,1.4-1.1
	C517.9,393.6,518.6,393.5,519,394.5z"/>
<path class="st0" d="M498.8,392.5c-0.6,0-1.5-0.1-1.6-1c-0.1-0.8,0.7-1.3,1.5-1.2c0.8,0,1.5,0.3,1.6,1.2
	C500.4,392.4,499.6,392.5,498.8,392.5z"/>
<path class="st0" d="M558.4,382.6c0.7,0.2,1.5,0.3,1.4,1c-0.1,0.8-0.9,1.1-1.7,1.2c-0.6,0.1-1.3-0.3-1.3-1
	C556.9,383.1,557.8,382.9,558.4,382.6z"/>
<path class="st0" d="M295.6,348.1c-0.3,0.7-0.6,1.4-1.4,1.4c-0.7,0-1.3-0.5-1.2-1.3c0.1-0.8,0.6-1.2,1.4-1.1
	C295.1,347,295.5,347.4,295.6,348.1z"/>
<path class="st0" d="M168.9,411.8c-0.2,0.8-0.7,1.1-1.5,1c-0.7-0.1-1.3-0.4-1.3-1.2c0-0.9,0.8-1,1.5-0.9
	C168.3,410.7,168.8,411,168.9,411.8z"/>
<path class="st0" d="M275,339.5c-0.2,0.7-0.4,1.5-1.2,1.5c-0.8,0-1.3-0.6-1.3-1.4c0-0.6,0.2-1.2,1-1.3
	C274.3,338.2,274.7,338.8,275,339.5z"/>
<path class="st0" d="M135.7,545.3c0.6,0,1,0.3,1,0.9c0,1.1-0.8,1.2-1.7,1.3c-0.6,0-1.2-0.2-1.1-0.8
	C134.1,545.9,134.7,545.3,135.7,545.3z"/>
<path class="st0" d="M496.5,470.3c-0.3,0.8-0.9,1-1.6,0.8c-0.6-0.1-1.4-0.4-1.4-1.2c0.1-0.9,0.9-0.9,1.6-0.8
	C495.7,469.4,496.4,469.5,496.5,470.3z"/>
<path class="st0" d="M522,459.2c-0.2,0.8-0.7,1-1.3,1c-0.7-0.1-1.3-0.4-1.3-1.2c0-0.8,0.7-0.7,1.2-0.8
	C521.4,458.1,521.8,458.5,522,459.2z"/>
<path class="st0" d="M441.3,486.8c0.7,0.1,1.3,0.4,1.4,1.2c0.1,0.6-0.4,1.1-1,1c-0.7-0.1-1.6-0.3-1.6-1.2
	C440.1,487.1,440.7,486.8,441.3,486.8z"/>
<path class="st0" d="M451.8,496.8c0,0.8-0.5,1.2-1.1,1.2c-0.8,0-1.5-0.4-1.6-1.2c-0.1-0.7,0.5-1.1,1.1-1.1
	C451.1,495.6,451.6,496.2,451.8,496.8z"/>
<path class="st0" d="M472.7,494c-0.2,0.7-0.7,1-1.3,1c-0.7,0-1.4-0.2-1.4-1.1c0-0.7,0.5-0.9,1.1-0.9
	C471.8,493.1,472.5,493.2,472.7,494z"/>
<path class="st0" d="M183.2,378.6c-0.1,0.8-0.6,1.2-1.2,1.2c-0.6,0-1.2-0.3-1.2-1c0-0.8,0.5-1.2,1.3-1.2
	C182.7,377.5,182.9,378.2,183.2,378.6z"/>
<path class="st0" d="M292.1,327.3c0,0.6-0.5,1.1-1,1c-0.7-0.1-1.2-0.7-1.1-1.4c0.1-0.6,0.3-1.3,1.1-1.1
	C291.9,325.9,292.1,326.5,292.1,327.3z"/>
<path class="st0" d="M372.7,242.2c0.7,0.1,1.1,0.4,1,1c-0.1,0.7-0.4,1.5-1.3,1.5c-0.6,0-1-0.6-0.9-1.1
	C371.5,242.9,371.9,242.3,372.7,242.2z"/>
<path class="st0" d="M129,557.3c-0.1-0.2-0.1-0.3-0.1-0.3c0.4-1.1,1-1.9,2.3-1.9c0.3,0,0.5,0.3,0.5,0.6
	C131.2,557,130.1,557.1,129,557.3z"/>
<path class="st0" d="M217.1,324.9c-0.7-0.1-0.9-0.8-1-1.6c-0.1-0.5,0.3-0.9,0.8-0.8c0.9,0.1,1.4,0.6,1.5,1.5
	C218.4,324.7,218.1,325,217.1,324.9z"/>
<path class="st0" d="M497.1,494.9c-0.7-0.2-1.6-0.4-1.6-1.4c0-0.6,0.5-0.8,1-0.7c0.8,0.1,1.6,0.4,1.6,1.4
	C498.1,494.6,497.7,494.9,497.1,494.9z"/>
<path class="st0" d="M167,498.1c0,0.7-0.4,1.2-1.1,1.3c-0.7,0.1-1.3-0.2-1.3-0.9c-0.1-0.8,0.5-1.2,1.3-1.3
	C166.5,497.1,166.8,497.5,167,498.1z"/>
<path class="st0" d="M139.2,387.6c-0.2,0.7-0.7,0.9-1.4,0.8c-0.7-0.1-1.3-0.4-1.2-1.3c0.1-0.7,0.8-0.8,1.4-0.7
	C138.7,386.5,139.1,386.9,139.2,387.6z"/>
<path class="st0" d="M273.9,347.5c0.7,0.3,1.5,0.4,1.5,1.2c0,0.6-0.4,1-1,1.1c-0.8,0.1-1-0.6-1.2-1.1
	C273.1,348.2,273.4,347.8,273.9,347.5z"/>
<path class="st0" d="M189.1,390c-1.4,0.2-2.4-0.3-3-1.3c-0.3-0.4-0.4-1-1.1-0.8c-0.1,0-0.3,0.5-0.3,0.7c0.4,0.9,0.9,0.2,1.4,0
	C187.5,388.1,188.4,388.6,189.1,390z"/>
<path class="st0" d="M129.4,491.6c-0.1,0.7-0.4,1.1-1,1.2c-0.8,0.1-1.3-0.3-1.4-1.1c-0.1-0.6,0.3-1,0.9-1
	C128.6,490.7,129,491.1,129.4,491.6z"/>
<path class="st0" d="M192.2,391.9c1.4-0.6,2.4-0.2,3,1c0.2,0.3,0,0.6-0.2,0.7C193.5,393.9,193,392.8,192.2,391.9z"/>
<path class="st0" d="M438.4,353c-0.1,0.7-0.6,1.1-1.2,1.2c-0.6,0.1-1.1-0.3-1-0.9c0.1-0.6,0.5-1.2,1.1-1.1
	C437.9,352.2,438.3,352.5,438.4,353z"/>
<path class="st0" d="M154.5,499.5c0.6,0.1,1.2,0.3,1.2,1c0,0.6-0.4,1-1,0.9c-0.5,0-1.1-0.3-1.1-0.9
	C153.5,499.8,154,499.6,154.5,499.5z"/>
<path class="st0" d="M461.7,488.3c0.8,0,1.4,0.2,1.4,0.9c0.1,0.6-0.5,1-1,1c-0.7,0-1.1-0.4-1.1-1.1
	C461,488.4,461.3,488.2,461.7,488.3z"/>
<path class="st0" d="M455,433.9c-0.2,0.6-0.7,1-1.3,1c-0.6,0.1-1.1-0.3-1.1-0.9c0.1-0.8,0.7-0.8,1.4-0.8
	C454.5,433.2,454.9,433.2,455,433.9z"/>
<path class="st0" d="M114.4,465.3c-0.5,0-1.2-0.1-1.1-0.8c0-0.7,0.7-0.9,1.3-0.9c0.5,0,1.2,0,1.1,0.7
	C115.7,465.1,115.1,465.3,114.4,465.3z"/>
<path class="st0" d="M187.2,353.5c-0.6-0.2-1.2-0.5-1.2-1.3c0-0.6,0.4-0.8,0.9-0.7c0.8,0.1,1.1,0.7,1.1,1.4
	C188,353.4,187.7,353.6,187.2,353.5z"/>
<path class="st0" d="M407.9,452.3c0.6,0.2,1.2,0.5,1.3,1.1c0.1,0.6-0.6,0.9-1.1,0.9c-0.6,0-1.2-0.4-1.2-1.1
	C406.9,452.6,407.3,452.3,407.9,452.3z"/>
<path class="st0" d="M337,552.6c1.1,0.9,1.4,1.9,1,3.2C336.6,555.1,336.2,554.1,337,552.6z"/>
<path class="st0" d="M346.2,364.4c-0.2,0.7-0.9,0.8-1.5,0.9c-0.4,0.1-0.9-0.2-0.8-0.6c0.2-0.8,0.8-1.2,1.6-1.1
	C345.9,363.6,346.2,363.8,346.2,364.4z"/>
<path class="st0" d="M438.6,443.3c0.6,0.1,1.2,0.3,1.4,0.9c0.1,0.5-0.3,0.8-0.8,0.9c-0.7,0.1-1.2-0.2-1.4-0.8
	C437.7,443.7,438.1,443.4,438.6,443.3z"/>
<path class="st0" d="M156.8,452.6c-1.3-0.4-1.8-1-1.4-2.2c0.1-0.3,0.4-0.7,0.7-0.5C157.2,450.4,156.8,451.4,156.8,452.6z"/>
<path class="st0" d="M157.3,490.4c0,0.7-0.3,0.8-0.8,0.7c-0.6-0.1-1.2-0.3-1.4-1c-0.1-0.4,0.2-0.8,0.7-0.8
	C156.5,489.4,157.1,489.8,157.3,490.4z"/>
<path class="st0" d="M432.2,487c-0.4,0.7-0.8,1.1-1.5,0.9c-0.7-0.2-0.9-0.7-0.7-1.4c0.1-0.7,0.6-0.5,1.1-0.5
	C431.6,486.1,432.1,486.4,432.2,487z"/>
<path class="st0" d="M361.2,374.6c-0.1,0.7-0.4,1-1.1,1c-0.6-0.1-1.1-0.3-0.9-1c0.1-0.5,0.5-1,1.1-1
	C360.9,373.6,361.2,374,361.2,374.6z"/>
<path class="st0" d="M110.9,541.6c-0.1,0.7-0.6,1-1.2,1.1c-0.4,0-0.9-0.1-0.9-0.6c0-0.7,0.7-0.9,1.2-1.1
	C110.4,540.9,110.8,541.1,110.9,541.6z"/>
<path class="st0" d="M332.1,544c0,0.6-0.4,0.9-0.9,0.9c-0.6-0.1-1-0.5-1-1.1c0-0.5,0.4-0.9,0.9-0.9C331.8,542.9,332,543.5,332.1,544
	z"/>
<path class="st0" d="M565.5,363.4c0-0.6,0.1-1.1,0.7-1c0.7,0.1,0.9,0.7,0.9,1.3c0,0.4,0.1,1.1-0.5,1.1
	C565.8,364.8,565.6,364,565.5,363.4z"/>
<path class="st0" d="M402.8,459c-0.2,0.5-0.5,0.9-1.1,0.9c-0.4,0-0.8-0.2-0.8-0.7c0-0.7,0.5-0.9,1.1-0.8
	C402.3,458.3,402.7,458.4,402.8,459z"/>
<path class="st0" d="M419.1,360.4c-0.1,0.6-0.5,1-1.1,1c-0.6,0-1-0.4-1-1c0-0.8,0.7-1,1.3-0.9C418.8,359.4,419.1,359.8,419.1,360.4z
	"/>
<path class="st0" d="M294.4,539.4c-0.1,0.5-0.3,0.9-0.8,0.9c-0.5,0-0.9-0.3-1-0.8c-0.1-0.6,0.4-0.8,0.8-0.9
	C293.9,538.6,294.2,538.9,294.4,539.4z"/>
<path class="st0" d="M409.3,307.1c0.1,0.7-0.5,1-1,1.1c-0.5,0.1-0.7-0.3-0.7-0.7c0-0.6,0.3-1.1,0.9-1.1
	C409.1,306.3,409.3,306.6,409.3,307.1z"/>
<path class="st0" d="M359.9,311c0.5,0.1,1,0.3,1.2,0.9c0.1,0.5-0.3,0.9-0.8,0.9c-0.6,0.1-1.1-0.2-1.2-0.8
	C359.1,311.4,359.4,311.1,359.9,311z"/>
<path class="st0" d="M422.1,520.6c0.6,0.1,1.1,0.4,1.1,1c0.1,0.5-0.3,0.7-0.8,0.7c-0.7,0-1-0.3-1-0.9
	C421.4,520.9,421.7,520.6,422.1,520.6z"/>
<path class="st0" d="M252.9,338.3c0.5,0.1,0.9,0.4,0.9,0.9c0,0.4-0.2,0.8-0.7,0.8c-0.6,0-0.9-0.4-1-1
	C252.1,338.6,252.5,338.4,252.9,338.3z"/>
<path class="st0" d="M218.9,350.6c-0.5-0.1-0.9-0.3-0.9-0.9c0-0.5,0.3-0.7,0.8-0.7c0.5,0,0.9,0.3,0.9,0.9
	C219.7,350.4,219.3,350.5,218.9,350.6z"/>
<path class="st0" d="M84.3,314.4c-0.6,0-1-0.1-1.1-0.7c0-0.6,0.4-0.8,0.9-0.7c0.5,0,1,0.3,1,0.8C85.2,314.4,84.7,314.4,84.3,314.4z"
	/>
<path class="st0" d="M152.4,406c-0.5,0-0.9-0.3-0.9-0.9c0-0.5,0.4-0.9,0.9-0.9c0.5,0,0.9,0.3,0.9,0.9
	C153.3,405.8,152.9,406,152.4,406z"/>
<path class="st0" d="M539,420.5c-0.1,0.5-0.4,0.6-0.8,0.6c-0.6,0-1-0.3-1-0.9c0-0.5,0.2-0.7,0.7-0.7
	C538.4,419.7,538.8,420,539,420.5z"/>
<path class="st0" d="M521.9,293.2c-0.3,0.6-0.7,1-1.3,0.9c-0.4-0.1-0.8-0.3-0.7-0.8c0.1-0.6,0.7-0.8,1.2-0.8
	C521.6,292.6,521.8,292.9,521.9,293.2z"/>
<path class="st0" d="M342.1,360.9c-0.3,0.5-0.5,1-1.1,1c-0.4,0-0.8-0.2-0.8-0.7c0.1-0.6,0.6-0.8,1.2-0.8
	C341.7,360.5,342.1,360.4,342.1,360.9z"/>
<path class="st0" d="M155,342.2c-0.1,0-0.1,0.1-0.2,0.1c0.1,0,0.2,0,0.3,0.1C155.1,342.3,155,342.2,155,342.2
	C155,342.1,155,342.2,155,342.2z"/>
<path class="st0" d="M327.5,520.4c0.1-0.1,0.1-0.1,0.2-0.2c0,0.1,0.1,0.1,0.1,0.2C327.7,520.4,327.6,520.4,327.5,520.4
	C327.5,520.4,327.5,520.4,327.5,520.4z"/>
<path class="st0" d="M350,505.2c0,0-0.1,0-0.1-0.1c0-0.1,0.1-0.1,0.1-0.2c0,0,0.1,0.1,0.1,0.1C350.2,505.1,350.1,505.2,350,505.2z"
	/>
</svg>
